<?xml version="1.0" encoding="UTF-8"?>
<!-- Generated by jsxcad -->
<!DOCTYPE svg PUBLIC "-//W3C//DTD SVG 1.1 Tiny//EN" "http://www.w3.org/Graphics/SVG/1.1/DTD/svg11-tiny.dtd">
<svg baseProfile="tiny" height="120.00000000000006mm" width="120.00000000000006mm" viewBox="0 0 120.00000000000006 120.00000000000006" version="1.1" stroke="black" stroke-width=".1" fill="none" xmlns="http://www.w3.org/2000/svg">
<path fill="#a52a2a" stroke="#a52a2a" d="M75.0394 97.46504 L81.96504 93.4606 L84.46781 97.78912 L77.54218 101.79356 z"/>
<path fill="#a52a2a" stroke="#a52a2a" d="M77.54218001111111 101.79356001921656 L77.54218001111111 101.79356001921656 L84.46781227221943 97.78912392978084 L84.46781227221943 97.78912392978084 z"/>
<path fill="#a52a2a" stroke="#a52a2a" d="M75.03940099925967 97.46503942222293 L75.03940099925967 97.46503942222293 L77.54217534959923 101.79356268888556 L77.54217534959923 101.79356268888556 z"/>
<path fill="#a52a2a" stroke="#a52a2a" d="M81.96503942350404 93.4606003333329 L84.46781126829111 97.78911926666756 L84.46781126829111 97.78911926666756 L81.96503942350404 93.4606003333329 z"/>
<path fill="#a52a2a" stroke="#a52a2a" d="M81.96503942222294 93.46059900074036 L81.96503942222294 93.46059900074036 L75.0393996666671 97.46503942350407 L75.0393996666671 97.46503942350407 z"/>
<path fill="#a52a2a" stroke="#a52a2a" d="M84.46781 97.78912 L81.96504 93.4606 L75.0394 97.46504 L77.54218 101.79356 z"/>
<path fill="#a52a2a" stroke="#a52a2a" d="M79.96282 89.99778 L84.46781 97.78912 L77.54218 101.79356 L73.03718 94.00222 L72.5 92.00256 L73.03462 90.00222 L74.49778 88.53718 L76.49744 88 L78.49778 88.53462 M75.00056 92.86699 L75.50111 93.73269 L77.50111 93.73141 L78.5 91.99872 L77.99944 91.13301 L77.69526 90.60693 L77.49889 90.26731 L75.49889 90.26859 L74.86562 91.36707 L74.5 92.00128 z"/>
<path fill="#a52a2a" stroke="#a52a2a" d="M74.50000109310604 92.0012806301713 L74.50000109310604 92.0012806301713 L74.86562075923433 91.36707043769557 L75.49889028852911 90.2685901663359 L75.49889028852911 90.2685901663359 L74.86562075923433 91.36707043769557 z"/>
<path fill="#a52a2a" stroke="#a52a2a" d="M74.49999952187389 92.00128027645495 L74.49999952187389 92.00128027645495 L75.00055799415958 92.8669911597872 L75.50110962756482 93.73269021534392 L75.50110962756482 93.73269021534392 L75.00055799415958 92.8669911597872 z"/>
<path fill="#a52a2a" stroke="#a52a2a" d="M77.50110999970829 93.73140954487202 L77.50110999970829 93.73140954487202 L75.50111000087092 93.73269135891208 L75.50111000087092 93.73269135891208 z"/>
<path fill="#a52a2a" stroke="#a52a2a" d="M78.4977806393646 88.53461760772694 L78.4977806393646 88.53461760772694 L76.49743955323635 88.00000167162929 L76.49743955323635 88.00000167162929 z"/>
<path fill="#a52a2a" stroke="#a52a2a" d="M77.49889037243518 90.26730978465605 L77.49889037243518 90.26730978465605 L77.69526039165173 90.60692977354496 L77.99944200584042 91.13300884021278 L78.50000047812611 91.99871972354502 L78.50000047812611 91.99871972354502 L77.99944200584042 91.13300884021278 L77.69526039165173 90.60692977354496 z"/>
<path fill="#a52a2a" stroke="#a52a2a" d="M73.03718078787782 94.002219544445 L73.03718078787782 94.002219544445 L77.54217534959923 101.79356268888556 L77.54217534959923 101.79356268888556 z"/>
<path fill="#a52a2a" stroke="#a52a2a" d="M84.46781227221943 97.78912392978084 L84.46781227221943 97.78912392978084 L77.54218001111111 101.79356001921656 L77.54218001111111 101.79356001921656 z"/>
<path fill="#a52a2a" stroke="#a52a2a" d="M72.49999985732673 92.0025600383272 L72.49999985732673 92.0025600383272 L73.03718091002156 94.00221975553522 L73.03718091002156 94.00221975553522 z"/>
<path fill="#a52a2a" stroke="#a52a2a" d="M73.03461760772696 90.00221936063538 L73.03461760772696 90.00221936063538 L72.5000016716293 92.00256044676364 L72.5000016716293 92.00256044676364 z"/>
<path fill="#a52a2a" stroke="#a52a2a" d="M74.49778057729266 88.53718057655314 L74.49778057729266 88.53718057655314 L73.03461892820567 90.00221892957862 L73.03461892820567 90.00221892957862 z"/>
<path fill="#a52a2a" stroke="#a52a2a" d="M77.49888999912906 90.26730864108796 L77.49888999912906 90.26730864108796 L75.4988900002917 90.26859045512802 L75.4988900002917 90.26859045512802 z"/>
<path fill="#a52a2a" stroke="#a52a2a" d="M74.49778024446476 88.53718091002158 L74.49778024446476 88.53718091002158 L76.49743996167278 87.99999985732674 L76.49743996167278 87.99999985732674 z"/>
<path fill="#a52a2a" stroke="#a52a2a" d="M79.96281942344687 89.99778057729263 L79.96281942344687 89.99778057729263 L78.4977810704214 88.53461892820565 L78.4977810704214 88.53461892820565 z"/>
<path fill="#a52a2a" stroke="#a52a2a" d="M79.96281921212218 89.99778045555499 L79.96281921212218 89.99778045555499 L84.46781126829111 97.78911926666756 L84.46781126829111 97.78911926666756 z"/>
<path fill="#a52a2a" stroke="#a52a2a" d="M78.49999890689402 91.99871936982873 L78.49999890689402 91.99871936982873 L77.50110971147095 93.73140983366413 L77.50110971147095 93.73140983366413 z"/>
<path fill="#a52a2a" stroke="#a52a2a" d="M84.46781 97.78912 L79.96282 89.99778 L78.49778 88.53462 L76.49744 88 L74.49778 88.53718 L73.03462 90.00222 L72.5 92.00256 L73.03718 94.00222 L77.54218 101.79356 M78.5 91.99872 L77.50111 93.73141 L75.50111 93.73269 L75.00056 92.86699 L74.5 92.00128 L74.86562 91.36707 L75.49889 90.26859 L77.49889 90.26731 L77.69526 90.60693 L77.99944 91.13301 z"/>
<path fill="#a52a2a" stroke="#a52a2a" d="M38.03496 93.4606 L44.9606 97.46504 L42.45782 101.79356 L35.53219 97.78912 z"/>
<path fill="#a52a2a" stroke="#a52a2a" d="M35.53218772778057 97.78912392978083 L35.53218772778057 97.78912392978083 L42.45781998888889 101.79356001921653 L42.45781998888889 101.79356001921653 z"/>
<path fill="#a52a2a" stroke="#a52a2a" d="M38.03496057649599 93.46060033333293 L38.03496057649599 93.46060033333293 L35.532188731708914 97.78911926666758 L35.532188731708914 97.78911926666758 z"/>
<path fill="#a52a2a" stroke="#a52a2a" d="M44.96059900074036 97.46503942222294 L42.4578246504008 101.79356268888559 L42.4578246504008 101.79356268888559 L44.96059900074036 97.46503942222294 z"/>
<path fill="#a52a2a" stroke="#a52a2a" d="M44.96060033333291 97.46503942350404 L44.96060033333291 97.46503942350404 L38.034960577777056 93.46059900074033 L38.034960577777056 93.46059900074033 z"/>
<path fill="#a52a2a" stroke="#a52a2a" d="M42.45782 101.79356 L44.9606 97.46504 L38.03496 93.4606 L35.53219 97.78912 z"/>
<path fill="#a52a2a" stroke="#a52a2a" d="M46.96282 94.00222 L42.45782 101.79356 L35.53219 97.78912 L40.03718 89.99778 L41.50222 88.53462 L43.50256 88 L45.50222 88.53718 L46.96538 90.00222 L47.5 92.00256 M44.49889 93.73269 L44.99944 92.86699 L45.30363 92.3409 L45.5 92.00128 L44.50111 90.26859 L43.23316 90.26778 L42.50111 90.26731 L42.00056 91.13301 L41.5 91.99872 L42.49889 93.73141 z"/>
<path fill="#a52a2a" stroke="#a52a2a" d="M42.50111000087093 90.26730864108796 L42.50111000087093 90.26730864108796 L43.23316000139905 90.2677778170726 L44.5011099997083 90.26859045512802 L44.5011099997083 90.26859045512802 L43.23316000139905 90.2677778170726 z"/>
<path fill="#a52a2a" stroke="#a52a2a" d="M42.501109627564844 90.26730978465608 L42.501109627564844 90.26730978465608 L42.000557994159614 91.1330088402128 L41.49999952187392 91.99871972354505 L41.49999952187392 91.99871972354505 L42.000557994159614 91.1330088402128 z"/>
<path fill="#a52a2a" stroke="#a52a2a" d="M42.49889028852909 93.7314098336641 L42.49889028852909 93.7314098336641 L41.500001093106015 91.9987193698287 L41.500001093106015 91.9987193698287 z"/>
<path fill="#a52a2a" stroke="#a52a2a" d="M47.49999832837074 92.00256044676362 L47.49999832837074 92.00256044676362 L46.96538239227309 90.00221936063537 L46.96538239227309 90.00221936063537 z"/>
<path fill="#a52a2a" stroke="#a52a2a" d="M45.50000047812615 92.00128027645498 L45.50000047812615 92.00128027645498 L45.30363045890961 92.34090026534389 L44.99944200584044 92.86699115978723 L44.49889037243521 93.73269021534395 L44.49889037243521 93.73269021534395 L44.99944200584044 92.86699115978723 L45.30363045890961 92.34090026534389 z"/>
<path fill="#a52a2a" stroke="#a52a2a" d="M40.037180787877844 89.99778045555502 L40.037180787877844 89.99778045555502 L35.532188731708914 97.78911926666758 L35.532188731708914 97.78911926666758 z"/>
<path fill="#a52a2a" stroke="#a52a2a" d="M42.45781998888889 101.79356001921653 L42.45781998888889 101.79356001921653 L35.53218772778057 97.78912392978083 L35.53218772778057 97.78912392978083 z"/>
<path fill="#a52a2a" stroke="#a52a2a" d="M41.502218929578625 88.53461892820566 L41.502218929578625 88.53461892820566 L40.03718057655315 89.99778057729266 L40.03718057655315 89.99778057729266 z"/>
<path fill="#a52a2a" stroke="#a52a2a" d="M43.502560446763646 88.0000016716293 L43.502560446763646 88.0000016716293 L41.50221936063539 88.53461760772694 L41.50221936063539 88.53461760772694 z"/>
<path fill="#a52a2a" stroke="#a52a2a" d="M45.502219755535236 88.53718091002156 L45.502219755535236 88.53718091002156 L43.50256003832721 87.99999985732673 L43.50256003832721 87.99999985732673 z"/>
<path fill="#a52a2a" stroke="#a52a2a" d="M45.499998906894 92.00128063017127 L45.499998906894 92.00128063017127 L44.50110971147092 90.26859016633587 L44.50110971147092 90.26859016633587 z"/>
<path fill="#a52a2a" stroke="#a52a2a" d="M45.50221942270737 88.53718057655313 L45.50221942270737 88.53718057655313 L46.965381071794354 90.0022189295786 L46.965381071794354 90.0022189295786 z"/>
<path fill="#a52a2a" stroke="#a52a2a" d="M46.96281908997848 94.00221975553524 L46.96281908997848 94.00221975553524 L47.500000142673315 92.00256003832722 L47.500000142673315 92.00256003832722 z"/>
<path fill="#a52a2a" stroke="#a52a2a" d="M46.96281921212221 94.00221954444501 L46.96281921212221 94.00221954444501 L42.4578246504008 101.79356268888559 L42.4578246504008 101.79356268888559 z"/>
<path fill="#a52a2a" stroke="#a52a2a" d="M44.49888999912906 93.73269135891208 L44.49888999912906 93.73269135891208 L42.498890000291695 93.73140954487202 L42.498890000291695 93.73140954487202 z"/>
<path fill="#a52a2a" stroke="#a52a2a" d="M42.45782 101.79356 L46.96282 94.00222 L47.5 92.00256 L46.96538 90.00222 L45.50222 88.53718 L43.50256 88 L41.50222 88.53462 L40.03718 89.99778 L35.53219 97.78912 M44.49889 93.73269 L42.49889 93.73141 L41.5 91.99872 L42.00056 91.13301 L42.50111 90.26731 L43.23316 90.26778 L44.50111 90.26859 L45.5 92.00128 L45.30363 92.3409 L44.99944 92.86699 z"/>
<path fill="#a52a2a" stroke="#a52a2a" d="M91.65685 27.99594 L85.99594 22.34315 L89.52893 18.80508 L95.18985 24.45787 z"/>
<path fill="#a52a2a" stroke="#a52a2a" d="M95.18984984935453 24.457870150861915 L95.18984984935453 24.457870150861915 L89.52893393112937 18.805076063222447 L89.52893393112937 18.805076063222447 z"/>
<path fill="#a52a2a" stroke="#a52a2a" d="M91.65685094109101 27.995940939740805 L91.65685094109101 27.995940939740805 L95.18984786638154 24.457867869442676 L95.18984786638154 24.457867869442676 z"/>
<path fill="#a52a2a" stroke="#a52a2a" d="M85.99593814655366 22.343148149212837 L89.52893007902293 18.80508007890956 L89.52893007902293 18.80508007890956 L85.99593814655366 22.343148149212837 z"/>
<path fill="#a52a2a" stroke="#a52a2a" d="M85.99594093974078 22.343149058909017 L85.99594093974078 22.343149058909017 L91.65685185078719 27.995938146553637 L91.65685185078719 27.995938146553637 z"/>
<path fill="#a52a2a" stroke="#a52a2a" d="M89.52893 18.80508 L85.99594 22.34315 L91.65685 27.99594 L95.18985 24.45787 z"/>
<path fill="#a52a2a" stroke="#a52a2a" d="M83.16954 25.1736 L89.52893 18.80508 L95.18985 24.45787 L88.83046 30.8264 L87.03805 31.86296 L84.9675 31.86445 L83.1736 30.83046 L82.13704 29.03805 L82.13555 26.9675 M84.5868 29.41523 L85.81178 29.74252 L86.51902 29.93148 L87.22562 29.22387 L87.93222 28.51625 L87.4132 26.58477 L85.48098 26.06852 L84.77438 26.77613 L84.34498 27.20615 L84.06778 27.48375 z"/>
<path fill="#a52a2a" stroke="#a52a2a" d="M86.51902042966893 29.93147839183672 L86.51902042966893 29.93147839183672 L85.81178051186187 29.74251808420529 L84.5868005277092 29.41522802489196 L84.5868005277092 29.41522802489196 L85.81178051186187 29.74251808420529 z"/>
<path fill="#a52a2a" stroke="#a52a2a" d="M86.51902217345707 29.931482170338786 L86.51902217345707 29.931482170338786 L87.22561955851725 29.223869559150653 L87.93222194357226 28.516251940783782 L87.93222194357226 28.516251940783782 L87.22561955851725 29.223869559150653 z"/>
<path fill="#a52a2a" stroke="#a52a2a" d="M87.41319771190878 26.584770614853024 L87.41319771190878 26.584770614853024 L87.93222228575054 28.51624938577595 L87.93222228575054 28.51624938577595 z"/>
<path fill="#a52a2a" stroke="#a52a2a" d="M82.13555449324201 26.967499996774414 L82.13555449324201 26.967499996774414 L82.13704088951091 29.038049999361437 L82.13704088951091 29.038049999361437 z"/>
<path fill="#a52a2a" stroke="#a52a2a" d="M84.06777805642778 27.48374805921627 L84.06777805642778 27.48374805921627 L84.34497891849587 27.206148920047518 L84.77438044148279 26.7761304408494 L85.48097782654297 26.068517829661268 L85.48097782654297 26.068517829661268 L84.77438044148279 26.7761304408494 L84.34497891849587 27.206148920047518 z"/>
<path fill="#a52a2a" stroke="#a52a2a" d="M88.8304563936819 30.826396398855962 L88.8304563936819 30.826396398855962 L95.18984786638154 24.457867869442676 L95.18984786638154 24.457867869442676 z"/>
<path fill="#a52a2a" stroke="#a52a2a" d="M89.52893393112937 18.805076063222447 L89.52893393112937 18.805076063222447 L95.18984984935453 24.457870150861915 L95.18984984935453 24.457870150861915 z"/>
<path fill="#a52a2a" stroke="#a52a2a" d="M87.03804950670012 31.862959146994314 L87.03804950670012 31.862959146994314 L88.83045745135755 30.82639559293112 L88.83045745135755 30.82639559293112 z"/>
<path fill="#a52a2a" stroke="#a52a2a" d="M84.96749999677441 31.86444550675804 L84.96749999677441 31.86444550675804 L87.03804999936143 31.862959110489133 L87.03804999936143 31.862959110489133 z"/>
<path fill="#a52a2a" stroke="#a52a2a" d="M83.17360237435483 30.83045588067032 L83.17360237435483 30.83045588067032 L84.96750138021746 31.864447605425006 L84.96750138021746 31.864447605425006 z"/>
<path fill="#a52a2a" stroke="#a52a2a" d="M84.06777771424947 27.483750614224036 L84.06777771424947 27.483750614224036 L84.58680228809125 29.41522938514696 L84.58680228809125 29.41522938514696 z"/>
<path fill="#a52a2a" stroke="#a52a2a" d="M83.17360440706891 30.830457451357518 L83.17360440706891 30.830457451357518 L82.13704085300571 29.0380495067001 L82.13704085300571 29.0380495067001 z"/>
<path fill="#a52a2a" stroke="#a52a2a" d="M83.16954411932971 25.173602374354868 L83.16954411932971 25.173602374354868 L82.13555239457503 26.967501380217485 L82.13555239457503 26.967501380217485 z"/>
<path fill="#a52a2a" stroke="#a52a2a" d="M83.16954360631814 25.17360360114409 L83.16954360631814 25.17360360114409 L89.52893007902293 18.80508007890956 L89.52893007902293 18.80508007890956 z"/>
<path fill="#a52a2a" stroke="#a52a2a" d="M85.48097957033104 26.068521608163316 L85.48097957033104 26.068521608163316 L87.41319947229077 26.584771975108076 L87.41319947229077 26.584771975108076 z"/>
<path fill="#a52a2a" stroke="#a52a2a" d="M89.52893 18.80508 L83.16954 25.1736 L82.13555 26.9675 L82.13704 29.03805 L83.1736 30.83046 L84.9675 31.86445 L87.03805 31.86296 L88.83046 30.8264 L95.18985 24.45787 M85.48098 26.06852 L87.4132 26.58477 L87.93222 28.51625 L87.22562 29.22387 L86.51902 29.93148 L85.81178 29.74252 L84.5868 29.41523 L84.06778 27.48375 L84.34498 27.20615 L84.77438 26.77613 z"/>
<path fill="#a52a2a" stroke="#a52a2a" d="M34.00406 22.34315 L28.34315 27.99594 L24.81015 24.45787 L30.47107 18.80508 z"/>
<path fill="#a52a2a" stroke="#a52a2a" d="M24.841222439021905 24.426842442526244 L30.47106606887065 18.805076063222476 L30.47106606887065 18.805076063222476 L24.810150150645494 24.45787015086194 L24.810150150645494 24.45787015086194 z"/>
<path fill="#a52a2a" stroke="#a52a2a" d="M33.276059841954186 21.614100157819063 L34.004061853446366 22.343148149212812 L34.004061853446366 22.343148149212812 L30.47106992097709 18.80508007890953 L30.47106992097709 18.80508007890953 z"/>
<path fill="#a52a2a" stroke="#a52a2a" d="M24.8131100071839 24.460829992826405 L24.810152133618487 24.45786786944265 L24.810152133618487 24.45786786944265 L28.343149058909017 27.99594093974078 L28.343149058909017 27.99594093974078 z"/>
<path fill="#a52a2a" stroke="#a52a2a" d="M32.680189368723774 23.665119367816768 L28.343148149212837 27.995938146553662 L28.343148149212837 27.995938146553662 L34.004059060259245 22.34314905890904 L34.004059060259245 22.34314905890904 z"/>
<path fill="#a52a2a" stroke="#a52a2a" d="M28.34315 27.99594 L32.68019 23.66512 L34.00406 22.34315 L33.27606 21.6141 L30.47107 18.80508 L24.84122 24.42684 L24.81015 24.45787 L24.81311 24.46083 z"/>
<path fill="#a52a2a" stroke="#a52a2a" d="M31.16954 30.8264 L24.81015 24.45787 L30.47107 18.80508 L36.83046 25.1736 L37.86445 26.9675 L37.86296 29.03805 L36.8264 30.83046 L35.0325 31.86445 L32.96195 31.86296 M32.06778 28.51625 L32.77438 29.22387 L33.20377 29.65388 L33.48098 29.93148 L35.4132 29.41523 L35.74225 28.19072 L35.93222 27.48375 L35.22562 26.77613 L34.51902 26.06852 L32.5868 26.58477 z"/>
<path fill="#a52a2a" stroke="#a52a2a" d="M35.93222228575056 27.48375061422405 L35.93222228575056 27.48375061422405 L35.74224659712729 28.190719085584277 L35.41319771190879 29.415229385146976 L35.41319771190879 29.415229385146976 L35.74224659712729 28.190719085584277 z"/>
<path fill="#a52a2a" stroke="#a52a2a" d="M35.93222194357224 27.483748059216243 L35.93222194357224 27.483748059216243 L35.225619558517224 26.776130440849368 L34.51902217345705 26.06851782966124 L34.51902217345705 26.06851782966124 L35.225619558517224 26.776130440849368 z"/>
<path fill="#a52a2a" stroke="#a52a2a" d="M32.58680052770922 26.58477197510809 L32.58680052770922 26.58477197510809 L34.51902042966895 26.06852160816333 L34.51902042966895 26.06852160816333 z"/>
<path fill="#a52a2a" stroke="#a52a2a" d="M32.96195000063856 31.862959110489136 L32.96195000063856 31.862959110489136 L35.03250000322558 31.86444550675804 L35.03250000322558 31.86444550675804 z"/>
<path fill="#a52a2a" stroke="#a52a2a" d="M33.48097782654294 29.931482170338754 L33.48097782654294 29.931482170338754 L33.20377197165361 29.653878031175157 L32.77438044148277 29.22386955915063 L32.067778056427755 28.516251940783754 L32.067778056427755 28.516251940783754 L32.77438044148277 29.22386955915063 L33.20377197165361 29.653878031175157 z"/>
<path fill="#a52a2a" stroke="#a52a2a" d="M36.83045639368188 25.173603601144062 L36.83045639368188 25.173603601144062 L30.47106992097709 18.80508007890953 L30.47106992097709 18.80508007890953 z"/>
<path fill="#a52a2a" stroke="#a52a2a" d="M24.810150150645494 24.45787015086194 L24.810150150645494 24.45787015086194 L30.47106606887065 18.805076063222476 L30.47106606887065 18.805076063222476 z"/>
<path fill="#a52a2a" stroke="#a52a2a" d="M37.864447605425006 26.967501380217456 L37.864447605425006 26.967501380217456 L36.83045588067032 25.173602374354843 L36.83045588067032 25.173602374354843 z"/>
<path fill="#a52a2a" stroke="#a52a2a" d="M37.862959110489136 29.038049999361437 L37.862959110489136 29.038049999361437 L37.86444550675804 26.967499996774414 L37.86444550675804 26.967499996774414 z"/>
<path fill="#a52a2a" stroke="#a52a2a" d="M36.82639559293112 30.830457451357546 L36.82639559293112 30.830457451357546 L37.862959146994314 29.038049506700126 L37.862959146994314 29.038049506700126 z"/>
<path fill="#a52a2a" stroke="#a52a2a" d="M33.48097957033106 29.931478391836734 L33.48097957033106 29.931478391836734 L35.413199472290785 29.41522802489197 L35.413199472290785 29.41522802489197 z"/>
<path fill="#a52a2a" stroke="#a52a2a" d="M36.826397625645164 30.83045588067035 L36.826397625645164 30.83045588067035 L35.03249861978255 31.86444760542503 L35.03249861978255 31.86444760542503 z"/>
<path fill="#a52a2a" stroke="#a52a2a" d="M31.169542548642465 30.826395592931096 L31.169542548642465 30.826395592931096 L32.96195049329988 31.86295914699429 L32.96195049329988 31.86295914699429 z"/>
<path fill="#a52a2a" stroke="#a52a2a" d="M31.169543606318122 30.826396398855934 L31.169543606318122 30.826396398855934 L24.810152133618487 24.45786786944265 L24.810152133618487 24.45786786944265 z"/>
<path fill="#a52a2a" stroke="#a52a2a" d="M32.067777714249495 28.516249385775964 L32.067777714249495 28.516249385775964 L32.58680228809127 26.58477061485304 L32.58680228809127 26.58477061485304 z"/>
<path fill="#a52a2a" stroke="#a52a2a" d="M24.81015 24.45787 L31.16954 30.8264 L32.96195 31.86296 L35.0325 31.86445 L36.8264 30.83046 L37.86296 29.03805 L37.86445 26.9675 L36.83046 25.1736 L30.47107 18.80508 M32.06778 28.51625 L32.5868 26.58477 L34.51902 26.06852 L35.22562 26.77613 L35.93222 27.48375 L35.74225 28.19072 L35.4132 29.41523 L33.48098 29.93148 L33.20377 29.65388 L32.77438 29.22387 z"/>
<path fill="#a52a2a" stroke="#a52a2a" d="M82.08747 115.78659 L78.54102 117.06339 L74.92139 118.11499 L71.24288 118.93724 L67.51999 119.52688 L63.76743 119.8816 L60 120 L56.23257 119.8816 L52.48001 119.52688 L48.75712 118.93724 L45.07861 118.11499 L41.45898 117.06339 L37.91253 115.78659 L34.45324 114.28962 L31.09478 112.5784 L27.85039 110.65968 L24.73288 108.54102 L21.75456 106.23079 L18.92717 103.73812 L16.26188 101.07283 L13.76921 98.24544 L11.45898 95.26712 L9.34032 92.14961 L7.4216 88.90522 L5.71038 85.54676 L4.21341 82.08747 L2.93661 78.54102 L1.88501 74.92139 L1.06276 71.24288 L0.47312 67.51999 L0.1184 63.76743 L0 60 L0.1184 56.23257 L0.47312 52.48001 L1.06276 48.75712 L1.88501 45.07861 L2.93661 41.45898 L4.21341 37.91253 L5.71038 34.45324 L7.4216 31.09478 L9.34032 27.85039 L11.45898 24.73288 L13.76921 21.75456 L16.26188 18.92717 L18.92717 16.26188 L21.75456 13.76921 L24.73288 11.45898 L27.85039 9.34032 L31.09478 7.4216 L34.45324 5.71038 L37.91253 4.21341 L41.45898 2.93661 L45.07861 1.88501 L48.75712 1.06276 L52.48001 0.47312 L56.23257 0.1184 L60 0 L63.76743 0.1184 L67.51999 0.47312 L71.24288 1.06276 L74.92139 1.88501 L78.54102 2.93661 L82.08747 4.21341 L85.54676 5.71038 L88.90522 7.4216 L92.14961 9.34032 L95.26712 11.45898 L98.24544 13.76921 L101.07283 16.26188 L103.73812 18.92717 L106.23079 21.75456 L108.54102 24.73288 L110.65968 27.85039 L112.5784 31.09478 L114.28962 34.45324 L115.78659 37.91253 L117.06339 41.45898 L118.11499 45.07861 L118.93724 48.75712 L119.52688 52.48001 L119.8816 56.23257 L120 60 L119.8816 63.76743 L119.52688 67.51999 L118.93724 71.24288 L118.11499 74.92139 L117.06339 78.54102 L115.78659 82.08747 L114.28962 85.54676 L112.5784 88.90522 L110.65968 92.14961 L108.54102 95.26712 L106.23079 98.24544 L103.73812 101.07283 L101.07283 103.73812 L98.24544 106.23079 L95.26712 108.54102 L92.14961 110.65968 L88.90522 112.5784 L85.54676 114.28962 M84.48231 112.02756 L87.70084 110.38763 L90.81004 108.54886 L93.79765 106.51848 L96.65188 104.30451 L99.36146 101.9157 L101.9157 99.36146 L104.30451 96.65188 L106.51848 93.79765 L108.54886 90.81004 L110.38763 87.70084 L112.02756 84.48231 L112.71829 82.88612 L113.46215 81.16716 L114.17519 79.18661 L114.28107 78.89251 L114.68575 77.76848 L115.69353 74.29967 L116.37449 71.25323 L116.48152 70.77443 L117.0466 67.20666 L117.38654 63.61045 L117.5 60 L117.38654 56.38955 L117.0466 52.79334 L116.48152 49.22557 L115.69353 45.70033 L114.68575 42.23152 L113.46215 38.83284 L113.2673 38.38257 L112.02756 35.51769 L110.42336 32.36927 L110.38763 32.29916 L109.50346 30.80411 L108.54886 29.18996 L106.51848 26.20235 L104.30451 23.34812 L102.8996 21.75456 L101.9157 20.63854 L99.36146 18.0843 L96.65188 15.69549 L93.79765 13.48152 L90.81004 11.45114 L87.70084 9.61237 L84.48231 7.97244 L81.39798 6.63774 L81.16716 6.53785 L77.76848 5.31425 L74.29967 4.30647 L70.77443 3.51848 L67.20666 2.9534 L63.61045 2.61346 L60 2.5 L56.38955 2.61346 L53.95757 2.84335 L52.79334 2.9534 L49.22557 3.51848 L45.70033 4.30647 L42.23152 5.31425 L38.83284 6.53785 L35.51769 7.97244 L32.29916 9.61237 L29.18996 11.45114 L26.20235 13.48152 L23.34812 15.69549 L20.63854 18.0843 L19.81164 18.91121 L18.0843 20.63854 L17.91798 20.8272 L17.1004 21.75456 L16.84414 22.04523 L15.69549 23.34812 L13.49007 26.19133 L13.48152 26.20235 L11.45114 29.18996 L9.61237 32.29916 L7.97244 35.51769 L6.53785 38.83284 L5.31425 42.23152 L4.30647 45.70033 L3.51848 49.22557 L3.03015 52.30876 L2.9534 52.79334 L2.61346 56.38955 L2.60006 56.81592 L2.5 60 L2.61346 63.61045 L2.9534 67.20666 L3.51848 70.77443 L4.30647 74.29967 L5.31425 77.76848 L6.53785 81.16716 L7.80303 84.09081 L7.97244 84.48231 L8.19518 84.91945 L9.61237 87.70084 L9.61946 87.71284 L11.45114 90.81004 L11.49537 90.87512 L12.12264 91.79812 L13.48152 93.79765 L15.69549 96.65188 L18.0843 99.36146 L19.15008 100.42724 L20.63854 101.9157 L21.08803 102.31197 L23.34812 104.30451 L26.20235 106.51848 L29.18996 108.54886 L32.29916 110.38763 L35.51769 112.02756 L38.83284 113.46215 L42.23152 114.68575 L42.64117 114.80476 L45.70033 115.69353 L49.22557 116.48152 L52.79334 117.0466 L56.38955 117.38654 L60 117.5 L63.61045 117.38654 L67.20666 117.0466 L70.35309 116.54825 L70.77443 116.48152 L73.71488 115.82425 L74.29967 115.69353 L77.76848 114.68575 L81.16716 113.46215 L82.88612 112.71829 z"/>
<path fill="#a52a2a" stroke="#a52a2a" d="M67.2066593005202 117.04659558365839 L67.2066593005202 117.04659558365839 L70.35308998737686 116.54824992030069 L70.77442941568208 116.4815163107619 L70.77442941568208 116.4815163107619 L70.35308998737686 116.54824992030069 z"/>
<path fill="#a52a2a" stroke="#a52a2a" d="M74.92139016237911 118.11499055891257 L74.92139016237911 118.11499055891257 L78.5410202356715 117.06339081118661 L78.5410202356715 117.06339081118661 z"/>
<path fill="#a52a2a" stroke="#a52a2a" d="M71.24287889133163 118.93723504010286 L71.24287889133163 118.93723504010286 L74.92139008295972 118.11499037114044 L74.92139008295972 118.11499037114044 z"/>
<path fill="#a52a2a" stroke="#a52a2a" d="M74.2996703049185 115.6935313641269 L74.2996703049185 115.6935313641269 L73.71487946441597 115.82424760393488 L70.77442913372063 116.48151612448893 L70.77442913372063 116.48151612448893 L73.71487946441597 115.82424760393488 z"/>
<path fill="#a52a2a" stroke="#a52a2a" d="M87.70084088883841 110.38763174444362 L87.70084088883841 110.38763174444362 L84.48230803501531 112.02755614350042 L84.48230803501531 112.02755614350042 z"/>
<path fill="#a52a2a" stroke="#a52a2a" d="M98.24544199627499 106.2307922643295 L98.24544199627499 106.2307922643295 L101.07282723816147 103.7381168673091 L101.07282723816147 103.7381168673091 z"/>
<path fill="#a52a2a" stroke="#a52a2a" d="M95.26711800994555 108.54101743443725 L95.26711800994555 108.54101743443725 L98.24544198048306 106.23079255322338 L98.24544198048306 106.23079255322338 z"/>
<path fill="#a52a2a" stroke="#a52a2a" d="M103.73811700050302 101.07282700050303 L103.73811700050302 101.07282700050303 L101.07282700050303 103.73811700050302 L101.07282700050303 103.73811700050302 z"/>
<path fill="#a52a2a" stroke="#a52a2a" d="M93.79764932144498 106.5184790015366 L93.79764932144498 106.5184790015366 L90.81003823331294 108.54885740039894 L90.81003823331294 108.54885740039894 z"/>
<path fill="#a52a2a" stroke="#a52a2a" d="M116.48151612448896 70.77442913372064 L116.48151612448896 70.77442913372064 L116.37449138180101 71.25323030886912 L115.6935313641269 74.2996703049185 L115.6935313641269 74.2996703049185 L116.37449138180101 71.25323030886912 z"/>
<path fill="#a52a2a" stroke="#a52a2a" d="M108.54101750863026 95.26711830686688 L108.54101750863026 95.26711830686688 L110.65967587249555 92.14960719495087 L110.65967587249555 92.14960719495087 z"/>
<path fill="#a52a2a" stroke="#a52a2a" d="M114.68574882302495 77.7684795762629 L114.68574882302495 77.7684795762629 L114.2810726289696 78.89251094648729 L114.17519040234961 79.18661014485477 L113.46214874221565 81.16715954716976 L113.46214874221565 81.16715954716976 L114.17519040234961 79.18661014485477 L114.2810726289696 78.89251094648729 z"/>
<path fill="#a52a2a" stroke="#a52a2a" d="M112.57840081765593 88.9052204166165 L112.57840081765593 88.9052204166165 L114.2896214854062 85.54676075685227 L114.2896214854062 85.54676075685227 z"/>
<path fill="#a52a2a" stroke="#a52a2a" d="M110.387631401142 87.70084082863306 L110.387631401142 87.70084082863306 L108.54885713800982 90.81003830742372 L108.54885713800982 90.81003830742372 z"/>
<path fill="#a52a2a" stroke="#a52a2a" d="M106.51847920908388 93.79764938650258 L106.51847920908388 93.79764938650258 L104.30451062583299 96.65188048544583 L104.30451062583299 96.65188048544583 z"/>
<path fill="#a52a2a" stroke="#a52a2a" d="M117.04659558365843 67.2066593005202 L117.04659558365843 67.2066593005202 L116.4815163107619 70.77442941568208 L116.4815163107619 70.77442941568208 z"/>
<path fill="#a52a2a" stroke="#a52a2a" d="M101.91569709351297 20.63854256241299 L101.91569709351297 20.63854256241299 L102.8995993337415 21.75456058738587 L104.30451052887145 23.34811953373709 L104.30451052887145 23.34811953373709 L102.8995993337415 21.75456058738587 z"/>
<path fill="#a52a2a" stroke="#a52a2a" d="M119.88160373882782 63.76743011749739 L119.88160373882782 63.76743011749739 L120.00000000000003 60 L120.00000000000003 60 z"/>
<path fill="#a52a2a" stroke="#a52a2a" d="M117.38653704068645 56.38955009300017 L117.38653704068645 56.38955009300017 L117.50000000000001 59.99999999999999 L117.50000000000001 59.99999999999999 z"/>
<path fill="#a52a2a" stroke="#a52a2a" d="M119.88160378266012 56.23256964243334 L119.88160378266012 56.23256964243334 L119.52688243651846 52.48000976968119 L119.52688243651846 52.48000976968119 z"/>
<path fill="#a52a2a" stroke="#a52a2a" d="M119.8816037388278 56.2325698825026 L119.8816037388278 56.2325698825026 L120.00000000000001 59.99999999999999 L120.00000000000001 59.99999999999999 z"/>
<path fill="#a52a2a" stroke="#a52a2a" d="M115.78659043900717 37.91252981002462 L115.78659043900717 37.91252981002462 L114.2896217380119 34.453239247895084 L114.2896217380119 34.453239247895084 z"/>
<path fill="#a52a2a" stroke="#a52a2a" d="M112.02755595601693 35.51769174998774 L112.02755595601693 35.51769174998774 L113.26729956212846 38.382570189483936 L113.46214891226788 38.832840470703715 L113.46214891226788 38.832840470703715 L113.26729956212846 38.382570189483936 z"/>
<path fill="#a52a2a" stroke="#a52a2a" d="M118.11499055891255 45.07860983762089 L118.11499055891255 45.07860983762089 L117.0633908111866 41.4589797643285 L117.0633908111866 41.4589797643285 z"/>
<path fill="#a52a2a" stroke="#a52a2a" d="M112.0275561435001 35.517691964984834 L112.0275561435001 35.517691964984834 L110.4233560516492 32.36927201178521 L110.3876317444436 32.29915911116159 L110.3876317444436 32.29915911116159 L110.4233560516492 32.36927201178521 z"/>
<path fill="#a52a2a" stroke="#a52a2a" d="M108.54101743443724 24.732881990054473 L108.54101743443724 24.732881990054473 L106.23079255322335 21.754558019516956 L106.23079255322335 21.754558019516956 z"/>
<path fill="#a52a2a" stroke="#a52a2a" d="M106.51847900153658 26.202350678555035 L106.51847900153658 26.202350678555035 L108.54885740039892 29.18996176668707 L108.54885740039892 29.18996176668707 z"/>
<path fill="#a52a2a" stroke="#a52a2a" d="M112.5784007901128 31.094779532728587 L112.5784007901128 31.094779532728587 L110.65967568006528 27.850392554802266 L110.65967568006528 27.850392554802266 z"/>
<path fill="#a52a2a" stroke="#a52a2a" d="M9.612368598858051 32.29915917136696 L9.612368598858051 32.29915917136696 L11.451142861990242 29.189961692576308 L11.451142861990242 29.189961692576308 z"/>
<path fill="#a52a2a" stroke="#a52a2a" d="M103.738117000503 18.92717299949699 L103.738117000503 18.92717299949699 L101.072827000503 16.26188299949699 L101.072827000503 16.26188299949699 z"/>
<path fill="#a52a2a" stroke="#a52a2a" d="M96.6518804662629 15.69548947112855 L96.6518804662629 15.69548947112855 L99.36145743758699 18.08430290648701 L99.36145743758699 18.08430290648701 z"/>
<path fill="#a52a2a" stroke="#a52a2a" d="M90.81003823331291 11.451142599601095 L90.81003823331291 11.451142599601095 L93.79764932144495 13.481520998463438 L93.79764932144495 13.481520998463438 z"/>
<path fill="#a52a2a" stroke="#a52a2a" d="M92.1496074451977 9.340324319934735 L92.1496074451977 9.340324319934735 L88.90522046727139 7.421599209887204 L88.90522046727139 7.421599209887204 z"/>
<path fill="#a52a2a" stroke="#a52a2a" d="M77.76847957626289 5.314251176975078 L77.76847957626289 5.314251176975078 L81.16715954716975 6.537851257784388 L81.16715954716975 6.537851257784388 z"/>
<path fill="#a52a2a" stroke="#a52a2a" d="M85.5467607521049 5.710378261988126 L85.5467607521049 5.710378261988126 L82.08747018997535 4.213409560992847 L82.08747018997535 4.213409560992847 z"/>
<path fill="#a52a2a" stroke="#a52a2a" d="M78.5410202728814 2.936609242042762 L78.5410202728814 2.936609242042762 L82.08747009285804 4.213409742076818 L82.08747009285804 4.213409742076818 z"/>
<path fill="#a52a2a" stroke="#a52a2a" d="M84.4823080350153 7.972443856499619 L84.4823080350153 7.972443856499619 L87.70084088883839 9.61236825555642 L87.70084088883839 9.61236825555642 z"/>
<path fill="#a52a2a" stroke="#a52a2a" d="M71.24287920668561 1.0627650087898208 L71.24287920668561 1.0627650087898208 L67.51999041942898 0.47311735182968184 L67.51999041942898 0.47311735182968184 z"/>
<path fill="#a52a2a" stroke="#a52a2a" d="M63.61044975127506 2.6134626312349543 L63.61044975127506 2.6134626312349543 L67.2066595702867 2.9534045458917637 L67.2066595702867 2.9534045458917637 z"/>
<path fill="#a52a2a" stroke="#a52a2a" d="M70.77442941568206 3.5184836892381393 L70.77442941568206 3.5184836892381393 L67.2066593005202 2.9534044163416153 L67.2066593005202 2.9534044163416153 z"/>
<path fill="#a52a2a" stroke="#a52a2a" d="M56.389550093000175 2.613462959313594 L56.389550093000175 2.613462959313594 L60 2.50000000000003 L60 2.50000000000003 z"/>
<path fill="#a52a2a" stroke="#a52a2a" d="M56.23256964243335 0.11839621733991798 L56.23256964243335 0.11839621733991798 L52.480009769681196 0.4731175634815771 L52.480009769681196 0.4731175634815771 z"/>
<path fill="#a52a2a" stroke="#a52a2a" d="M45.0786098376209 1.8850094410874936 L45.0786098376209 1.8850094410874936 L41.45897976432851 2.9366091888134456 L41.45897976432851 2.9366091888134456 z"/>
<path fill="#a52a2a" stroke="#a52a2a" d="M38.83284045283025 6.537851257784408 L38.83284045283025 6.537851257784408 L42.23152042373711 5.3142511769751 L42.23152042373711 5.3142511769751 z"/>
<path fill="#a52a2a" stroke="#a52a2a" d="M35.517691749987755 7.972444043983094 L35.517691749987755 7.972444043983094 L38.83284047070374 6.5378510877321725 L38.83284047070374 6.5378510877321725 z"/>
<path fill="#a52a2a" stroke="#a52a2a" d="M37.912529810024644 4.213409560992875 L37.912529810024644 4.213409560992875 L34.453239247895105 5.710378261988139 L34.453239247895105 5.710378261988139 z"/>
<path fill="#a52a2a" stroke="#a52a2a" d="M74.2996703570177 4.306468771136983 L74.2996703570177 4.306468771136983 L77.76847969637 5.314251045101319 L77.76847969637 5.314251045101319 z"/>
<path fill="#a52a2a" stroke="#a52a2a" d="M23.348119514554217 15.695489374167067 L23.348119514554217 15.695489374167067 L26.202350613497465 13.48152079091617 L26.202350613497465 13.48152079091617 z"/>
<path fill="#a52a2a" stroke="#a52a2a" d="M20.63854266618465 18.08430266618465 L20.63854266618465 18.08430266618465 L19.81163766618465 18.911207666184648 L18.08430266618464 20.638542666184645 L18.08430266618464 20.638542666184645 L19.81163766618465 18.911207666184648 z"/>
<path fill="#a52a2a" stroke="#a52a2a" d="M93.79764938650254 13.481520790916145 L93.79764938650254 13.481520790916145 L96.6518804854458 15.695489374167042 L96.6518804854458 15.695489374167042 z"/>
<path fill="#a52a2a" stroke="#a52a2a" d="M15.695489471128575 23.34811953373712 L15.695489471128575 23.34811953373712 L16.844140623359568 22.045230549565385 L17.100400666258512 21.754560587385892 L17.91797943841526 20.827199504896452 L18.084302906487046 20.63854256241302 L18.084302906487046 20.63854256241302 L17.91797943841526 20.827199504896452 L17.100400666258512 21.754560587385892 L16.844140623359568 22.045230549565385 z"/>
<path fill="#a52a2a" stroke="#a52a2a" d="M13.481520790916164 26.20235061349746 L13.481520790916164 26.20235061349746 L13.490069534866356 26.191329639205364 L15.69548937416816 23.348119514555066 L15.69548937416816 23.348119514555066 L13.490069534866356 26.191329639205364 z"/>
<path fill="#a52a2a" stroke="#a52a2a" d="M13.769207446776683 21.75455801951699 L13.769207446776683 21.75455801951699 L11.458982565562792 24.73288199005449 L11.458982565562792 24.73288199005449 z"/>
<path fill="#a52a2a" stroke="#a52a2a" d="M16.261882999497 101.07282700050298 L16.261882999497 101.07282700050298 L18.927172999496985 103.738117000503 L18.927172999496985 103.738117000503 z"/>
<path fill="#a52a2a" stroke="#a52a2a" d="M5.710378261988145 34.453239247895105 L5.710378261988145 34.453239247895105 L4.213409560992866 37.912529810024644 L4.213409560992866 37.912529810024644 z"/>
<path fill="#a52a2a" stroke="#a52a2a" d="M4.306468771136995 45.70032964298229 L4.306468771136995 45.70032964298229 L5.314251045101336 42.231520303630006 L5.314251045101336 42.231520303630006 z"/>
<path fill="#a52a2a" stroke="#a52a2a" d="M1.885009628859629 45.07860991704029 L1.885009628859629 45.07860991704029 L1.0627649598971924 48.75712110866837 L1.0627649598971924 48.75712110866837 z"/>
<path fill="#a52a2a" stroke="#a52a2a" d="M0.4731175634815857 52.480009769681196 L0.4731175634815857 52.480009769681196 L0.11839621733991564 56.23256964243335 L0.11839621733991564 56.23256964243335 z"/>
<path fill="#a52a2a" stroke="#a52a2a" d="M2.9366092420427807 41.4589797271186 L2.9366092420427807 41.4589797271186 L4.213409742076842 37.912529907141945 L4.213409742076842 37.912529907141945 z"/>
<path fill="#a52a2a" stroke="#a52a2a" d="M2.613462959313613 56.389550093000175 L2.613462959313613 56.389550093000175 L2.6000637414882237 56.815920117581 L2.500000000000023 60 L2.500000000000023 60 L2.6000637414882237 56.815920117581 z"/>
<path fill="#a52a2a" stroke="#a52a2a" d="M2.953404545891763 67.2066595702867 L2.953404545891763 67.2066595702867 L2.6134626312349605 63.61044975127506 L2.6134626312349605 63.61044975127506 z"/>
<path fill="#a52a2a" stroke="#a52a2a" d="M0.11839621733991842 63.767430357566646 L0.11839621733991842 63.767430357566646 L0.4731175634815698 67.5199902303188 L0.4731175634815698 67.5199902303188 z"/>
<path fill="#a52a2a" stroke="#a52a2a" d="M5.710378514593841 85.54676075685224 L5.710378514593841 85.54676075685224 L7.421599182344104 88.90522041661649 L7.421599182344104 88.90522041661649 z"/>
<path fill="#a52a2a" stroke="#a52a2a" d="M1.0627649598971827 71.24287889133161 L1.0627649598971827 71.24287889133161 L1.885009628859602 74.9213900829597 L1.885009628859602 74.9213900829597 z"/>
<path fill="#a52a2a" stroke="#a52a2a" d="M2.936609242042772 78.54102027288138 L2.936609242042772 78.54102027288138 L4.2134097420768155 82.08747009285806 L4.2134097420768155 82.08747009285806 z"/>
<path fill="#a52a2a" stroke="#a52a2a" d="M2.9366091888134265 78.54102023567148 L2.9366091888134265 78.54102023567148 L1.8850094410874878 74.9213901623791 L1.8850094410874878 74.9213901623791 z"/>
<path fill="#a52a2a" stroke="#a52a2a" d="M9.612368255556447 87.70084088883837 L9.612368255556447 87.70084088883837 L8.19517905741235 84.91945048027239 L7.97244385649963 84.48230803501528 L7.97244385649963 84.48230803501528 L8.19517905741235 84.91945048027239 z"/>
<path fill="#a52a2a" stroke="#a52a2a" d="M13.48152099846343 93.79764932144495 L13.48152099846343 93.79764932144495 L12.12264155612545 91.79811894245823 L11.495371451969286 90.87511901324268 L11.451142599601107 90.81003823331291 L11.451142599601107 90.81003823331291 L11.495371451969286 90.87511901324268 L12.12264155612545 91.79811894245823 z"/>
<path fill="#a52a2a" stroke="#a52a2a" d="M2.3199521516223855e-14 60 L2.3199521516223855e-14 60 L0.11839626117224508 56.2325698825026 L0.11839626117224508 56.2325698825026 z"/>
<path fill="#a52a2a" stroke="#a52a2a" d="M15.695489374167035 96.6518804854458 L15.695489374167035 96.6518804854458 L13.481520790916145 93.79764938650254 L13.481520790916145 93.79764938650254 z"/>
<path fill="#a52a2a" stroke="#a52a2a" d="M20.638542666184627 101.91569733381537 L20.638542666184627 101.91569733381537 L19.150082666184623 100.42723733381537 L18.084302666184623 99.36145733381537 L18.084302666184623 99.36145733381537 L19.150082666184623 100.42723733381537 z"/>
<path fill="#a52a2a" stroke="#a52a2a" d="M26.202350613497437 106.51847920908386 L26.202350613497437 106.51847920908386 L23.34811951455419 104.30451062583295 L23.34811951455419 104.30451062583295 z"/>
<path fill="#a52a2a" stroke="#a52a2a" d="M21.754558003725027 106.23079226432948 L21.754558003725027 106.23079226432948 L18.927172761838563 103.73811686730906 L18.927172761838563 103.73811686730906 z"/>
<path fill="#a52a2a" stroke="#a52a2a" d="M24.732881990054466 108.54101743443724 L24.732881990054466 108.54101743443724 L21.75455801951696 106.23079255322334 L21.75455801951696 106.23079255322334 z"/>
<path fill="#a52a2a" stroke="#a52a2a" d="M42.23152030362999 114.6857489548987 L42.23152030362999 114.6857489548987 L42.64116914440617 114.80476294497328 L45.700329642982275 115.69353122886305 L45.700329642982275 115.69353122886305 L42.64116914440617 114.80476294497328 z"/>
<path fill="#a52a2a" stroke="#a52a2a" d="M32.29915917136693 110.38763140114199 L32.29915917136693 110.38763140114199 L29.18996169257629 108.54885713800978 L29.18996169257629 108.54885713800978 z"/>
<path fill="#a52a2a" stroke="#a52a2a" d="M31.094779583383506 112.57840081765589 L31.094779583383506 112.57840081765589 L34.453239243147735 114.28962148540619 L34.453239243147735 114.28962148540619 z"/>
<path fill="#a52a2a" stroke="#a52a2a" d="M37.91252981002462 115.78659043900717 L37.91252981002462 115.78659043900717 L34.45323924789509 114.28962173801189 L34.45323924789509 114.28962173801189 z"/>
<path fill="#a52a2a" stroke="#a52a2a" d="M41.45897972711858 117.06339075795728 L41.45897972711858 117.06339075795728 L37.91252990714193 115.7865902579232 L37.91252990714193 115.7865902579232 z"/>
<path fill="#a52a2a" stroke="#a52a2a" d="M67.51999041942898 119.52688264817037 L67.51999041942898 119.52688264817037 L71.24287920668563 118.93723499121023 L71.24287920668563 118.93723499121023 z"/>
<path fill="#a52a2a" stroke="#a52a2a" d="M48.757120793314364 118.93723499121022 L48.757120793314364 118.93723499121022 L52.480009580571014 119.52688264817036 L52.480009580571014 119.52688264817036 z"/>
<path fill="#a52a2a" stroke="#a52a2a" d="M56.38955024872492 117.3865373687651 L56.38955024872492 117.3865373687651 L52.79334042971328 117.04659545410827 L52.79334042971328 117.04659545410827 z"/>
<path fill="#a52a2a" stroke="#a52a2a" d="M56.2325698825026 119.8816037388278 L56.2325698825026 119.8816037388278 L59.99999999999999 120.00000000000001 L59.99999999999999 120.00000000000001 z"/>
<path fill="#a52a2a" stroke="#a52a2a" d="M63.610449906999825 117.38653704068645 L63.610449906999825 117.38653704068645 L60 117.50000000000003 L60 117.50000000000003 z"/>
<path fill="#a52a2a" stroke="#a52a2a" d="M82.08747018997536 115.7865904390072 L82.08747018997536 115.7865904390072 L85.54676075210492 114.28962173801192 L85.54676075210492 114.28962173801192 z"/>
<path fill="#a52a2a" stroke="#a52a2a" d="M119.52688243651848 67.51999023031881 L119.52688243651848 67.51999023031881 L119.88160378266014 63.76743035756665 L119.88160378266014 63.76743035756665 z"/>
<path fill="#a52a2a" stroke="#a52a2a" d="M63.76743035756665 119.88160378266014 L63.76743035756665 119.88160378266014 L67.51999023031881 119.52688243651848 L67.51999023031881 119.52688243651848 z"/>
<path fill="#a52a2a" stroke="#a52a2a" d="M67.2066595702867 117.04659545410829 L67.2066595702867 117.04659545410829 L63.61044975127507 117.38653736876509 L63.61044975127507 117.38653736876509 z"/>
<path fill="#a52a2a" stroke="#a52a2a" d="M63.76743011749739 119.88160373882782 L63.76743011749739 119.88160373882782 L60 120.00000000000003 L60 120.00000000000003 z"/>
<path fill="#a52a2a" stroke="#a52a2a" d="M59.99999999999999 117.50000000000001 L59.99999999999999 117.50000000000001 L56.389550093000175 117.38653704068645 L56.389550093000175 117.38653704068645 z"/>
<path fill="#a52a2a" stroke="#a52a2a" d="M56.23256964243334 119.88160378266014 L56.23256964243334 119.88160378266014 L52.48000976968119 119.52688243651845 L52.48000976968119 119.52688243651845 z"/>
<path fill="#a52a2a" stroke="#a52a2a" d="M49.22557058431791 116.48151631076189 L49.22557058431791 116.48151631076189 L52.793340699479785 117.04659558365843 L52.793340699479785 117.04659558365843 z"/>
<path fill="#a52a2a" stroke="#a52a2a" d="M45.07860991704028 118.11499037114042 L45.07860991704028 118.11499037114042 L48.75712110866836 118.93723504010286 L48.75712110866836 118.93723504010286 z"/>
<path fill="#a52a2a" stroke="#a52a2a" d="M49.22557086627934 116.48151612448898 L49.22557086627934 116.48151612448898 L45.700329695081514 115.69353136412687 L45.700329695081514 115.69353136412687 z"/>
<path fill="#a52a2a" stroke="#a52a2a" d="M45.07860983762088 118.11499055891257 L45.07860983762088 118.11499055891257 L41.4589797643285 117.0633908111866 L41.4589797643285 117.0633908111866 z"/>
<path fill="#a52a2a" stroke="#a52a2a" d="M38.832840452830226 113.46214874221562 L38.832840452830226 113.46214874221562 L42.23152042373709 114.68574882302495 L42.23152042373709 114.68574882302495 z"/>
<path fill="#a52a2a" stroke="#a52a2a" d="M35.51769174998773 112.02755595601694 L35.51769174998773 112.02755595601694 L38.83284047070371 113.46214891226788 L38.83284047070371 113.46214891226788 z"/>
<path fill="#a52a2a" stroke="#a52a2a" d="M35.517691964984685 112.0275561435004 L35.517691964984685 112.0275561435004 L32.29915911116159 110.38763174444358 L32.29915911116159 110.38763174444358 z"/>
<path fill="#a52a2a" stroke="#a52a2a" d="M27.850392554802273 110.65967568006526 L27.850392554802273 110.65967568006526 L31.09477953272858 112.57840079011281 L31.09477953272858 112.57840079011281 z"/>
<path fill="#a52a2a" stroke="#a52a2a" d="M27.850392805049136 110.65967587249553 L27.850392805049136 110.65967587249553 L24.732881693133145 108.54101750863023 L24.732881693133145 108.54101750863023 z"/>
<path fill="#a52a2a" stroke="#a52a2a" d="M29.189961766687066 108.54885740039892 L29.189961766687066 108.54885740039892 L26.202350678555046 106.51847900153656 L26.202350678555046 106.51847900153656 z"/>
<path fill="#a52a2a" stroke="#a52a2a" d="M20.638542562412997 101.91569709351297 L20.638542562412997 101.91569709351297 L21.08802822633535 102.31197201182763 L23.348119533737083 104.30451052887145 L23.348119533737083 104.30451052887145 L21.08802822633535 102.31197201182763 z"/>
<path fill="#a52a2a" stroke="#a52a2a" d="M18.084302906487007 99.36145743758699 L18.084302906487007 99.36145743758699 L15.695489471128553 96.6518804662629 L15.695489471128553 96.6518804662629 z"/>
<path fill="#a52a2a" stroke="#a52a2a" d="M13.769207735670525 98.24544199627496 L13.769207735670525 98.24544199627496 L16.261883132690922 101.07282723816142 L16.261883132690922 101.07282723816142 z"/>
<path fill="#a52a2a" stroke="#a52a2a" d="M11.458982565562776 95.26711800994552 L11.458982565562776 95.26711800994552 L13.769207446776642 98.24544198048304 L13.769207446776642 98.24544198048304 z"/>
<path fill="#a52a2a" stroke="#a52a2a" d="M9.340324127504497 92.14960719495083 L9.340324127504497 92.14960719495083 L11.458982491369763 95.26711830686686 L11.458982491369763 95.26711830686686 z"/>
<path fill="#a52a2a" stroke="#a52a2a" d="M9.612368598858039 87.70084082863303 L9.612368598858039 87.70084082863303 L9.619463622163611 87.7128378578584 L11.451142861990215 90.8100383074237 L11.451142861990215 90.8100383074237 L9.619463622163611 87.7128378578584 z"/>
<path fill="#a52a2a" stroke="#a52a2a" d="M9.340324319934735 92.1496074451977 L9.340324319934735 92.1496074451977 L7.421599209887212 88.90522046727139 L7.421599209887212 88.90522046727139 z"/>
<path fill="#a52a2a" stroke="#a52a2a" d="M6.5378510877322125 81.16715952929623 L6.5378510877322125 81.16715952929623 L7.80302799777303 84.09081086644098 L7.972444043983072 84.48230825001225 L7.972444043983072 84.48230825001225 L7.80302799777303 84.09081086644098 z"/>
<path fill="#a52a2a" stroke="#a52a2a" d="M4.213409560992858 82.08747018997535 L4.213409560992858 82.08747018997535 L5.7103782619881205 85.5467607521049 L5.7103782619881205 85.5467607521049 z"/>
<path fill="#a52a2a" stroke="#a52a2a" d="M5.314251176975083 77.76847957626289 L5.314251176975083 77.76847957626289 L6.537851257784383 81.16715954716975 L6.537851257784383 81.16715954716975 z"/>
<path fill="#a52a2a" stroke="#a52a2a" d="M4.306468771136993 74.2996703570177 L4.306468771136993 74.2996703570177 L5.314251045101311 77.76847969637 L5.314251045101311 77.76847969637 z"/>
<path fill="#a52a2a" stroke="#a52a2a" d="M3.5184838755110746 70.77442913372063 L3.5184838755110746 70.77442913372063 L4.306468635873149 74.29967030491848 L4.306468635873149 74.29967030491848 z"/>
<path fill="#a52a2a" stroke="#a52a2a" d="M1.062765008789811 71.24287920668561 L1.062765008789811 71.24287920668561 L0.47311735182968856 67.51999041942898 L0.47311735182968856 67.51999041942898 z"/>
<path fill="#a52a2a" stroke="#a52a2a" d="M3.5184836892381286 70.77442941568208 L3.5184836892381286 70.77442941568208 L2.9534044163416273 67.2066593005202 L2.9534044163416273 67.2066593005202 z"/>
<path fill="#a52a2a" stroke="#a52a2a" d="M3.3587813593343965e-14 59.99999999999999 L3.3587813593343965e-14 59.99999999999999 L0.11839626117222707 63.76743011749739 L0.11839626117222707 63.76743011749739 z"/>
<path fill="#a52a2a" stroke="#a52a2a" d="M2.613462959313589 63.61044990699982 L2.613462959313589 63.61044990699982 L2.5000000000000333 59.99999999999999 L2.5000000000000333 59.99999999999999 z"/>
<path fill="#a52a2a" stroke="#a52a2a" d="M2.9534045458917735 52.79334042971329 L2.9534045458917735 52.79334042971329 L2.613462631234959 56.38955024872493 L2.613462631234959 56.38955024872493 z"/>
<path fill="#a52a2a" stroke="#a52a2a" d="M3.518483689238166 49.225570584317914 L3.518483689238166 49.225570584317914 L3.0301543500959047 52.308760688987505 L2.953404416341622 52.79334069947979 L2.953404416341622 52.79334069947979 L3.0301543500959047 52.308760688987505 z"/>
<path fill="#a52a2a" stroke="#a52a2a" d="M0.4731173518296866 52.48000958057102 L0.4731173518296866 52.48000958057102 L1.0627650087898384 48.75712079331437 L1.0627650087898384 48.75712079331437 z"/>
<path fill="#a52a2a" stroke="#a52a2a" d="M3.518483875511082 49.225570866279355 L3.518483875511082 49.225570866279355 L4.306468635873172 45.70032969508153 L4.306468635873172 45.70032969508153 z"/>
<path fill="#a52a2a" stroke="#a52a2a" d="M2.936609188813454 41.45897976432852 L2.936609188813454 41.45897976432852 L1.885009441087494 45.0786098376209 L1.885009441087494 45.0786098376209 z"/>
<path fill="#a52a2a" stroke="#a52a2a" d="M6.537851257784408 38.83284045283025 L6.537851257784408 38.83284045283025 L5.314251176975091 42.23152042373711 L5.314251176975091 42.23152042373711 z"/>
<path fill="#a52a2a" stroke="#a52a2a" d="M7.9724440439830975 35.517691749987755 L7.9724440439830975 35.517691749987755 L6.537851087732161 38.83284047070373 L6.537851087732161 38.83284047070373 z"/>
<path fill="#a52a2a" stroke="#a52a2a" d="M7.9724438564996385 35.517691964984714 L7.9724438564996385 35.517691964984714 L9.612368255556449 32.299159111161615 L9.612368255556449 32.299159111161615 z"/>
<path fill="#a52a2a" stroke="#a52a2a" d="M7.421599182344136 31.094779583383527 L7.421599182344136 31.094779583383527 L5.710378514593847 34.45323924314776 L5.710378514593847 34.45323924314776 z"/>
<path fill="#a52a2a" stroke="#a52a2a" d="M13.48152099846346 26.202350678555064 L13.48152099846346 26.202350678555064 L11.451142599601113 29.18996176668709 L11.451142599601113 29.18996176668709 z"/>
<path fill="#a52a2a" stroke="#a52a2a" d="M9.340324319934767 27.850392554802298 L9.340324319934767 27.850392554802298 L7.4215992098872245 31.094779532728605 L7.4215992098872245 31.094779532728605 z"/>
<path fill="#a52a2a" stroke="#a52a2a" d="M9.34032412750451 27.850392805049168 L9.34032412750451 27.850392805049168 L11.458982491369795 24.732881693133166 L11.458982491369795 24.732881693133166 z"/>
<path fill="#a52a2a" stroke="#a52a2a" d="M16.261883132690954 18.927172761838587 L16.261883132690954 18.927172761838587 L13.76920773567055 21.75455800372506 L13.76920773567055 21.75455800372506 z"/>
<path fill="#a52a2a" stroke="#a52a2a" d="M18.92717299949702 16.261882999497026 L18.92717299949702 16.261882999497026 L16.26188299949702 18.92717299949702 L16.26188299949702 18.92717299949702 z"/>
<path fill="#a52a2a" stroke="#a52a2a" d="M21.75455800372506 13.76920773567055 L21.75455800372506 13.76920773567055 L18.927172761838584 16.26188313269095 L18.927172761838584 16.26188313269095 z"/>
<path fill="#a52a2a" stroke="#a52a2a" d="M20.638542562413015 18.084302906487043 L20.638542562413015 18.084302906487043 L23.348119533737123 15.69548947112858 L23.348119533737123 15.69548947112858 z"/>
<path fill="#a52a2a" stroke="#a52a2a" d="M24.732881990054494 11.458982565562797 L24.732881990054494 11.458982565562797 L21.754558019516978 13.769207446776672 L21.754558019516978 13.769207446776672 z"/>
<path fill="#a52a2a" stroke="#a52a2a" d="M27.85039280504917 9.340324127504516 L27.85039280504917 9.340324127504516 L24.732881693133162 11.45898249136979 L24.732881693133162 11.45898249136979 z"/>
<path fill="#a52a2a" stroke="#a52a2a" d="M31.094779532728612 7.4215992098872325 L31.094779532728612 7.4215992098872325 L27.850392554802298 9.340324319934762 L27.850392554802298 9.340324319934762 z"/>
<path fill="#a52a2a" stroke="#a52a2a" d="M29.189961766687095 11.451142599601122 L29.189961766687095 11.451142599601122 L26.20235067855506 13.481520998463456 L26.20235067855506 13.481520998463456 z"/>
<path fill="#a52a2a" stroke="#a52a2a" d="M32.299159111161615 9.612368255556445 L32.299159111161615 9.612368255556445 L35.517691964984714 7.972443856499648 L35.517691964984714 7.972443856499648 z"/>
<path fill="#a52a2a" stroke="#a52a2a" d="M32.299159171366966 9.61236859885806 L32.299159171366966 9.61236859885806 L29.189961692576308 11.45114286199024 L29.189961692576308 11.45114286199024 z"/>
<path fill="#a52a2a" stroke="#a52a2a" d="M31.094779583383524 7.421599182344131 L31.094779583383524 7.421599182344131 L34.45323924314776 5.710378514593856 L34.45323924314776 5.710378514593856 z"/>
<path fill="#a52a2a" stroke="#a52a2a" d="M37.912529907141945 4.213409742076839 L37.912529907141945 4.213409742076839 L41.4589797271186 2.9366092420427856 L41.4589797271186 2.9366092420427856 z"/>
<path fill="#a52a2a" stroke="#a52a2a" d="M45.70032964298229 4.306468771136998 L45.70032964298229 4.306468771136998 L42.231520303630006 5.314251045101332 L42.231520303630006 5.314251045101332 z"/>
<path fill="#a52a2a" stroke="#a52a2a" d="M49.225570866279355 3.518483875511086 L49.225570866279355 3.518483875511086 L45.70032969508152 4.306468635873162 L45.70032969508152 4.306468635873162 z"/>
<path fill="#a52a2a" stroke="#a52a2a" d="M52.79334069947979 2.953404416341625 L52.79334069947979 2.953404416341625 L49.225570584317914 3.518483689238143 L49.225570584317914 3.518483689238143 z"/>
<path fill="#a52a2a" stroke="#a52a2a" d="M48.75712110866837 1.062764959897192 L48.75712110866837 1.062764959897192 L45.07860991704029 1.8850096288596145 L45.07860991704029 1.8850096288596145 z"/>
<path fill="#a52a2a" stroke="#a52a2a" d="M52.79334042971329 2.953404545891764 L52.79334042971329 2.953404545891764 L53.957570229506295 2.843352427923049 L56.38955024872493 2.613462631234978 L56.38955024872493 2.613462631234978 L53.957570229506295 2.843352427923049 z"/>
<path fill="#a52a2a" stroke="#a52a2a" d="M48.75712079331437 1.062765008789824 L48.75712079331437 1.062765008789824 L52.48000958057102 0.47311735182969117 L52.48000958057102 0.47311735182969117 z"/>
<path fill="#a52a2a" stroke="#a52a2a" d="M60 3.0656125467618256e-14 L60 3.0656125467618256e-14 L56.2325698825026 0.11839626117223165 L56.2325698825026 0.11839626117223165 z"/>
<path fill="#a52a2a" stroke="#a52a2a" d="M59.99999999999999 2.5000000000000258 L59.99999999999999 2.5000000000000258 L63.61044990699982 2.6134629593135967 L63.61044990699982 2.6134629593135967 z"/>
<path fill="#a52a2a" stroke="#a52a2a" d="M63.76743011749739 0.11839626117223422 L63.76743011749739 0.11839626117223422 L59.99999999999999 2.6131209641950678e-14 L59.99999999999999 2.6131209641950678e-14 z"/>
<path fill="#a52a2a" stroke="#a52a2a" d="M63.767430357566646 0.1183962173399115 L63.767430357566646 0.1183962173399115 L67.5199902303188 0.47311756348157713 L67.5199902303188 0.47311756348157713 z"/>
<path fill="#a52a2a" stroke="#a52a2a" d="M74.29967030491848 4.306468635873155 L74.29967030491848 4.306468635873155 L70.77442913372063 3.518483875511073 L70.77442913372063 3.518483875511073 z"/>
<path fill="#a52a2a" stroke="#a52a2a" d="M74.9213900829597 1.8850096288596045 L74.9213900829597 1.8850096288596045 L71.24287889133161 1.0627649598971793 L71.24287889133161 1.0627649598971793 z"/>
<path fill="#a52a2a" stroke="#a52a2a" d="M74.9213901623791 1.8850094410874751 L74.9213901623791 1.8850094410874751 L78.54102023567148 2.936609188813431 L78.54102023567148 2.936609188813431 z"/>
<path fill="#a52a2a" stroke="#a52a2a" d="M84.48230825001221 7.9724440439831605 L84.48230825001221 7.9724440439831605 L81.39798144888805 6.637736651817252 L81.16715952929626 6.537851087732146 L81.16715952929626 6.537851087732146 L81.39798144888805 6.637736651817252 z"/>
<path fill="#a52a2a" stroke="#a52a2a" d="M85.54676075685224 5.710378514593834 L85.54676075685224 5.710378514593834 L88.90522041661647 7.42159918234411 L88.90522041661647 7.42159918234411 z"/>
<path fill="#a52a2a" stroke="#a52a2a" d="M87.70084082863305 9.612368598858028 L87.70084082863305 9.612368598858028 L90.8100383074237 11.45114286199022 L90.8100383074237 11.45114286199022 z"/>
<path fill="#a52a2a" stroke="#a52a2a" d="M95.26711830686685 11.45898249136977 L95.26711830686685 11.45898249136977 L92.14960719495083 9.340324127504482 L92.14960719495083 9.340324127504482 z"/>
<path fill="#a52a2a" stroke="#a52a2a" d="M98.24544198048304 13.769207446776651 L98.24544198048304 13.769207446776651 L95.26711800994552 11.458982565562769 L95.26711800994552 11.458982565562769 z"/>
<path fill="#a52a2a" stroke="#a52a2a" d="M98.24544199627496 13.769207735670522 L98.24544199627496 13.769207735670522 L101.07282723816142 16.261883132690922 L101.07282723816142 16.261883132690922 z"/>
<path fill="#a52a2a" stroke="#a52a2a" d="M101.91569733381537 20.63854266618462 L101.91569733381537 20.63854266618462 L99.36145733381537 18.084302666184616 L99.36145733381537 18.084302666184616 z"/>
<path fill="#a52a2a" stroke="#a52a2a" d="M103.73811686730907 18.927172761838555 L103.73811686730907 18.927172761838555 L106.23079226432947 21.75455800372503 L106.23079226432947 21.75455800372503 z"/>
<path fill="#a52a2a" stroke="#a52a2a" d="M106.51847920908386 26.202350613497437 L106.51847920908386 26.202350613497437 L104.30451062583296 23.348119514554188 L104.30451062583296 23.348119514554188 z"/>
<path fill="#a52a2a" stroke="#a52a2a" d="M110.65967587249551 27.85039280504914 L110.65967587249551 27.85039280504914 L108.54101750863023 24.73288169313314 L108.54101750863023 24.73288169313314 z"/>
<path fill="#a52a2a" stroke="#a52a2a" d="M108.5488571380098 29.189961692576286 L108.5488571380098 29.189961692576286 L109.50346132315744 30.804109217486868 L110.38763140114196 32.299159171366945 L110.38763140114196 32.299159171366945 L109.50346132315744 30.804109217486868 z"/>
<path fill="#a52a2a" stroke="#a52a2a" d="M112.5784008176559 31.094779583383506 L112.5784008176559 31.094779583383506 L114.28962148540619 34.45323924314774 L114.28962148540619 34.45323924314774 z"/>
<path fill="#a52a2a" stroke="#a52a2a" d="M117.06339075795725 41.45897972711859 L117.06339075795725 41.45897972711859 L115.78659025792321 37.91252990714192 L115.78659025792321 37.91252990714192 z"/>
<path fill="#a52a2a" stroke="#a52a2a" d="M114.68574882302494 42.23152042373709 L114.68574882302494 42.23152042373709 L113.46214874221563 38.832840452830226 L113.46214874221563 38.832840452830226 z"/>
<path fill="#a52a2a" stroke="#a52a2a" d="M115.69353122886304 45.700329642982275 L115.69353122886304 45.700329642982275 L114.68574895489871 42.23152030362999 L114.68574895489871 42.23152030362999 z"/>
<path fill="#a52a2a" stroke="#a52a2a" d="M118.93723504010285 48.757121108668365 L118.93723504010285 48.757121108668365 L118.11499037114042 45.07860991704028 L118.11499037114042 45.07860991704028 z"/>
<path fill="#a52a2a" stroke="#a52a2a" d="M116.4815163107619 49.22557058431791 L116.4815163107619 49.22557058431791 L117.04659558365842 52.793340699479785 L117.04659558365842 52.793340699479785 z"/>
<path fill="#a52a2a" stroke="#a52a2a" d="M116.48151612448896 49.22557086627935 L116.48151612448896 49.22557086627935 L115.69353136412688 45.700329695081514 L115.69353136412688 45.700329695081514 z"/>
<path fill="#a52a2a" stroke="#a52a2a" d="M118.93723499121022 48.757120793314364 L118.93723499121022 48.757120793314364 L119.52688264817036 52.480009580571014 L119.52688264817036 52.480009580571014 z"/>
<path fill="#a52a2a" stroke="#a52a2a" d="M117.04659545410829 52.79334042971328 L117.04659545410829 52.79334042971328 L117.38653736876509 56.38955024872492 L117.38653736876509 56.38955024872492 z"/>
<path fill="#a52a2a" stroke="#a52a2a" d="M117.38653704068645 63.610449906999825 L117.38653704068645 63.610449906999825 L117.50000000000003 60 L117.50000000000003 60 z"/>
<path fill="#a52a2a" stroke="#a52a2a" d="M117.38653736876509 63.61044975127507 L117.38653736876509 63.61044975127507 L117.04659545410829 67.2066595702867 L117.04659545410829 67.2066595702867 z"/>
<path fill="#a52a2a" stroke="#a52a2a" d="M118.93723499121023 71.24287920668563 L118.93723499121023 71.24287920668563 L119.52688264817036 67.51999041942898 L119.52688264817036 67.51999041942898 z"/>
<path fill="#a52a2a" stroke="#a52a2a" d="M118.11499037114044 74.92139008295972 L118.11499037114044 74.92139008295972 L118.93723504010286 71.24287889133163 L118.93723504010286 71.24287889133163 z"/>
<path fill="#a52a2a" stroke="#a52a2a" d="M114.68574895489873 77.76847969637001 L114.68574895489873 77.76847969637001 L115.69353122886307 74.29967035701773 L115.69353122886307 74.29967035701773 z"/>
<path fill="#a52a2a" stroke="#a52a2a" d="M117.06339081118661 78.5410202356715 L117.06339081118661 78.5410202356715 L118.11499055891257 74.92139016237911 L118.11499055891257 74.92139016237911 z"/>
<path fill="#a52a2a" stroke="#a52a2a" d="M115.78659025792322 82.08747009285807 L115.78659025792322 82.08747009285807 L117.06339075795728 78.54102027288141 L117.06339075795728 78.54102027288141 z"/>
<path fill="#a52a2a" stroke="#a52a2a" d="M112.02755595601695 84.48230825001227 L112.02755595601695 84.48230825001227 L112.7182885614798 82.88611937749673 L113.46214891226789 81.16715952929628 L113.46214891226789 81.16715952929628 L112.7182885614798 82.88611937749673 z"/>
<path fill="#a52a2a" stroke="#a52a2a" d="M115.7865904390072 82.08747018997536 L115.7865904390072 82.08747018997536 L114.28962173801192 85.54676075210492 L114.28962173801192 85.54676075210492 z"/>
<path fill="#a52a2a" stroke="#a52a2a" d="M112.02755614350042 84.48230803501531 L112.02755614350042 84.48230803501531 L110.38763174444361 87.70084088883841 L110.38763174444361 87.70084088883841 z"/>
<path fill="#a52a2a" stroke="#a52a2a" d="M112.57840079011284 88.90522046727142 L112.57840079011284 88.90522046727142 L110.6596756800653 92.14960744519773 L110.6596756800653 92.14960744519773 z"/>
<path fill="#a52a2a" stroke="#a52a2a" d="M106.51847900153659 93.79764932144498 L106.51847900153659 93.79764932144498 L108.54885740039894 90.81003823331294 L108.54885740039894 90.81003823331294 z"/>
<path fill="#a52a2a" stroke="#a52a2a" d="M106.23079255322338 98.24544198048306 L106.23079255322338 98.24544198048306 L108.54101743443726 95.26711800994555 L108.54101743443726 95.26711800994555 z"/>
<path fill="#a52a2a" stroke="#a52a2a" d="M106.23079226432951 98.24544199627499 L106.23079226432951 98.24544199627499 L103.7381168673091 101.07282723816145 L103.7381168673091 101.07282723816145 z"/>
<path fill="#a52a2a" stroke="#a52a2a" d="M101.915697093513 99.36145743758702 L101.915697093513 99.36145743758702 L104.30451052887148 96.65188046626294 L104.30451052887148 96.65188046626294 z"/>
<path fill="#a52a2a" stroke="#a52a2a" d="M99.3614573338154 101.9156973338154 L99.3614573338154 101.9156973338154 L101.9156973338154 99.3614573338154 L101.9156973338154 99.3614573338154 z"/>
<path fill="#a52a2a" stroke="#a52a2a" d="M96.65188046626294 104.30451052887148 L96.65188046626294 104.30451052887148 L99.36145743758702 101.91569709351302 L99.36145743758702 101.91569709351302 z"/>
<path fill="#a52a2a" stroke="#a52a2a" d="M96.65188048544583 104.30451062583298 L96.65188048544583 104.30451062583298 L93.79764938650258 106.51847920908389 L93.79764938650258 106.51847920908389 z"/>
<path fill="#a52a2a" stroke="#a52a2a" d="M92.14960719495086 110.65967587249554 L92.14960719495086 110.65967587249554 L95.26711830686688 108.54101750863026 L95.26711830686688 108.54101750863026 z"/>
<path fill="#a52a2a" stroke="#a52a2a" d="M88.90522046727142 112.57840079011284 L88.90522046727142 112.57840079011284 L92.14960744519773 110.65967568006529 L92.14960744519773 110.65967568006529 z"/>
<path fill="#a52a2a" stroke="#a52a2a" d="M90.81003830742372 108.54885713800982 L90.81003830742372 108.54885713800982 L87.70084082863306 110.387631401142 L87.70084082863306 110.387631401142 z"/>
<path fill="#a52a2a" stroke="#a52a2a" d="M88.9052204166165 112.57840081765593 L88.9052204166165 112.57840081765593 L85.54676075685227 114.2896214854062 L85.54676075685227 114.2896214854062 z"/>
<path fill="#a52a2a" stroke="#a52a2a" d="M81.16715952929627 113.46214891226788 L81.16715952929627 113.46214891226788 L82.88611937749673 112.71828856147978 L84.48230825001227 112.02755595601697 L84.48230825001227 112.02755595601697 L82.88611937749673 112.71828856147978 z"/>
<path fill="#a52a2a" stroke="#a52a2a" d="M82.08747009285807 115.78659025792322 L82.08747009285807 115.78659025792322 L78.54102027288141 117.06339075795728 L78.54102027288141 117.06339075795728 z"/>
<path fill="#a52a2a" stroke="#a52a2a" d="M77.76847969637001 114.68574895489873 L77.76847969637001 114.68574895489873 L74.29967035701772 115.69353122886307 L74.29967035701772 115.69353122886307 z"/>
<path fill="#a52a2a" stroke="#a52a2a" d="M77.7684795762629 114.68574882302497 L77.7684795762629 114.68574882302497 L81.16715954716976 113.46214874221566 L81.16715954716976 113.46214874221566 z"/>
<path fill="#a52a2a" stroke="#a52a2a" d="M78.54102 117.06339 L82.08747 115.78659 L85.54676 114.28962 L88.90522 112.5784 L92.14961 110.65968 L95.26712 108.54102 L98.24544 106.23079 L101.07283 103.73812 L103.73812 101.07283 L106.23079 98.24544 L108.54102 95.26712 L110.65968 92.14961 L112.5784 88.90522 L114.28962 85.54676 L115.78659 82.08747 L117.06339 78.54102 L118.11499 74.92139 L118.93724 71.24288 L119.52688 67.51999 L119.8816 63.76743 L120 60 L119.8816 56.23257 L119.52688 52.48001 L118.93724 48.75712 L118.11499 45.07861 L117.06339 41.45898 L115.78659 37.91253 L114.28962 34.45324 L112.5784 31.09478 L110.65968 27.85039 L108.54102 24.73288 L106.23079 21.75456 L103.73812 18.92717 L101.07283 16.26188 L98.24544 13.76921 L95.26712 11.45898 L92.14961 9.34032 L88.90522 7.4216 L85.54676 5.71038 L82.08747 4.21341 L78.54102 2.93661 L74.92139 1.88501 L71.24288 1.06276 L67.51999 0.47312 L63.76743 0.1184 L60 0 L56.23257 0.1184 L52.48001 0.47312 L48.75712 1.06276 L45.07861 1.88501 L41.45898 2.93661 L37.91253 4.21341 L34.45324 5.71038 L31.09478 7.4216 L27.85039 9.34032 L24.73288 11.45898 L21.75456 13.76921 L18.92717 16.26188 L16.26188 18.92717 L13.76921 21.75456 L11.45898 24.73288 L9.34032 27.85039 L7.4216 31.09478 L5.71038 34.45324 L4.21341 37.91253 L2.93661 41.45898 L1.88501 45.07861 L1.06276 48.75712 L0.47312 52.48001 L0.1184 56.23257 L0 60 L0.1184 63.76743 L0.47312 67.51999 L1.06276 71.24288 L1.88501 74.92139 L2.93661 78.54102 L4.21341 82.08747 L5.71038 85.54676 L7.4216 88.90522 L9.34032 92.14961 L11.45898 95.26712 L13.76921 98.24544 L16.26188 101.07283 L18.92717 103.73812 L21.75456 106.23079 L24.73288 108.54102 L27.85039 110.65968 L31.09478 112.5784 L34.45324 114.28962 L37.91253 115.78659 L41.45898 117.06339 L45.07861 118.11499 L48.75712 118.93724 L52.48001 119.52688 L56.23257 119.8816 L60 120 L63.76743 119.8816 L67.51999 119.52688 L71.24288 118.93724 L74.92139 118.11499 M81.16716 113.46215 L77.76848 114.68575 L74.29967 115.69353 L73.71488 115.82425 L70.77443 116.48152 L70.35309 116.54825 L67.20666 117.0466 L63.61045 117.38654 L60 117.5 L56.38955 117.38654 L52.79334 117.0466 L49.22557 116.48152 L45.70033 115.69353 L42.64117 114.80476 L42.23152 114.68575 L38.83284 113.46215 L35.51769 112.02756 L32.29916 110.38763 L29.18996 108.54886 L26.20235 106.51848 L23.34812 104.30451 L21.08803 102.31197 L20.63854 101.9157 L19.15008 100.42724 L18.0843 99.36146 L15.69549 96.65188 L13.48152 93.79765 L12.12264 91.79812 L11.49537 90.87512 L11.45114 90.81004 L9.61946 87.71284 L9.61237 87.70084 L8.19518 84.91945 L7.97244 84.48231 L7.80303 84.09081 L6.53785 81.16716 L5.31425 77.76848 L4.30647 74.29967 L3.51848 70.77443 L2.9534 67.20666 L2.61346 63.61045 L2.5 60 L2.60006 56.81592 L2.61346 56.38955 L2.9534 52.79334 L3.03015 52.30876 L3.51848 49.22557 L4.30647 45.70033 L5.31425 42.23152 L6.53785 38.83284 L7.97244 35.51769 L9.61237 32.29916 L11.45114 29.18996 L13.48152 26.20235 L13.49007 26.19133 L15.69549 23.34812 L16.84414 22.04523 L17.1004 21.75456 L17.91798 20.8272 L18.0843 20.63854 L19.81164 18.91121 L20.63854 18.0843 L23.34812 15.69549 L26.20235 13.48152 L29.18996 11.45114 L32.29916 9.61237 L35.51769 7.97244 L38.83284 6.53785 L42.23152 5.31425 L45.70033 4.30647 L49.22557 3.51848 L52.79334 2.9534 L53.95757 2.84335 L56.38955 2.61346 L60 2.5 L63.61045 2.61346 L67.20666 2.9534 L70.77443 3.51848 L74.29967 4.30647 L77.76848 5.31425 L81.16716 6.53785 L81.39798 6.63774 L84.48231 7.97244 L87.70084 9.61237 L90.81004 11.45114 L93.79765 13.48152 L96.65188 15.69549 L99.36146 18.0843 L101.9157 20.63854 L102.8996 21.75456 L104.30451 23.34812 L106.51848 26.20235 L108.54886 29.18996 L109.50346 30.80411 L110.38763 32.29916 L110.42336 32.36927 L112.02756 35.51769 L113.2673 38.38257 L113.46215 38.83284 L114.68575 42.23152 L115.69353 45.70033 L116.48152 49.22557 L117.0466 52.79334 L117.38654 56.38955 L117.5 60 L117.38654 63.61045 L117.0466 67.20666 L116.48152 70.77443 L116.37449 71.25323 L115.69353 74.29967 L114.68575 77.76848 L114.28107 78.89251 L114.17519 79.18661 L113.46215 81.16716 L112.71829 82.88612 L112.02756 84.48231 L110.38763 87.70084 L108.54886 90.81004 L106.51848 93.79765 L104.30451 96.65188 L101.9157 99.36146 L99.36146 101.9157 L96.65188 104.30451 L93.79765 106.51848 L90.81004 108.54886 L87.70084 110.38763 L84.48231 112.02756 L82.88612 112.71829 z"/>
<path fill="#008000" stroke="#008000" d="M56.54652 114.89147 L53.10667 114.56631 L49.69403 114.0258 L46.32206 113.27207 L43.00407 112.30811 L39.75315 111.13771 L36.58214 109.76549 L33.50355 108.19687 L30.52953 106.43804 L27.67181 104.49593 L24.94168 102.37823 L22.34991 100.09327 L19.90673 97.65009 L17.62177 95.05832 L15.50407 92.32819 L13.56196 89.47047 L11.80313 86.49645 L10.23451 83.41786 L8.86229 80.24685 L7.69189 76.99593 L6.72793 73.67794 L5.9742 70.30597 L5.43369 66.89333 L5.10853 63.45348 L5 60 L5.10853 56.54652 L5.43369 53.10667 L5.9742 49.69403 L6.72793 46.32206 L7.69189 43.00407 L8.86229 39.75315 L10.23451 36.58214 L11.80313 33.50355 L13.56196 30.52953 L15.50407 27.67181 L17.62177 24.94168 L19.90673 22.34991 L22.34991 19.90673 L24.94168 17.62177 L27.67181 15.50407 L30.52953 13.56196 L33.50355 11.80313 L36.58214 10.23451 L39.75315 8.86229 L43.00407 7.69189 L46.32206 6.72793 L49.69403 5.9742 L53.10667 5.43369 L56.54652 5.10853 L60 5 L63.45348 5.10853 L66.89333 5.43369 L70.30597 5.9742 L73.67794 6.72793 L76.99593 7.69189 L80.24685 8.86229 L83.41786 10.23451 L86.49645 11.80313 L89.47047 13.56196 L92.32819 15.50407 L95.05832 17.62177 L97.65009 19.90673 L100.09327 22.34991 L102.37823 24.94168 L104.49593 27.67181 L106.43804 30.52953 L108.19687 33.50355 L109.76549 36.58214 L111.13771 39.75315 L112.30811 43.00407 L113.27207 46.32206 L114.0258 49.69403 L114.56631 53.10667 L114.89147 56.54652 L115 60 L114.89147 63.45348 L114.56631 66.89333 L114.0258 70.30597 L113.27207 73.67794 L112.30811 76.99593 L111.13771 80.24685 L109.76549 83.41786 L108.19687 86.49645 L106.43804 89.47047 L104.49593 92.32819 L102.37823 95.05832 L100.09327 97.65009 L97.65009 100.09327 L95.05832 102.37823 L92.32819 104.49593 L89.47047 106.43804 L86.49645 108.19687 L83.41786 109.76549 L80.24685 111.13771 L76.99593 112.30811 L73.67794 113.27207 L70.30597 114.0258 L66.89333 114.56631 L63.45348 114.89147 L60 115 z"/>
<path fill="#008000" stroke="#008000" d="M70.3059698519744 114.02579933777153 L70.3059698519744 114.02579933777153 L73.67794100274199 113.2720744860098 L73.67794100274199 113.2720744860098 z"/>
<path fill="#008000" stroke="#008000" d="M63.453479993326305 114.89146992939973 L63.453479993326305 114.89146992939973 L66.8933298471612 114.56630838313436 L66.8933298471612 114.56630838313436 z"/>
<path fill="#008000" stroke="#008000" d="M66.89332972669642 114.56630827442908 L66.89332972669642 114.56630827442908 L70.30596986939595 114.02579917539856 L70.30596986939595 114.02579917539856 z"/>
<path fill="#008000" stroke="#008000" d="M76.9959300270782 112.3081100752126 L76.9959300270782 112.3081100752126 L80.24684900148146 111.13770722650808 L80.24684900148146 111.13770722650808 z"/>
<path fill="#008000" stroke="#008000" d="M83.41785939276276 109.76548859675754 L83.41785939276276 109.76548859675754 L80.24684886861719 111.1377073855286 L80.24684886861719 111.1377073855286 z"/>
<path fill="#008000" stroke="#008000" d="M92.32819182552826 104.49593268618327 L92.32819182552826 104.49593268618327 L89.47046927167503 106.43803892830233 L89.47046927167503 106.43803892830233 z"/>
<path fill="#008000" stroke="#008000" d="M86.49644939969293 108.19686898493622 L86.49644939969293 108.19686898493622 L89.47046916964972 106.43803859595434 L89.47046916964972 106.43803859595434 z"/>
<path fill="#008000" stroke="#008000" d="M86.49644937704909 108.19686877739001 L86.49644937704909 108.19686877739001 L83.41785935826334 109.76548874052088 L83.41785935826334 109.76548874052088 z"/>
<path fill="#008000" stroke="#008000" d="M95.05831899040858 102.3782286984426 L95.05831899040858 102.3782286984426 L92.32819184942484 104.49593238426414 L92.32819184942484 104.49593238426414 z"/>
<path fill="#008000" stroke="#008000" d="M97.65009266712778 100.09327266712778 L97.65009266712778 100.09327266712778 L100.09327266712778 97.65009266712778 L100.09327266712778 97.65009266712778 z"/>
<path fill="#008000" stroke="#008000" d="M97.65009259758611 100.09327294638308 L97.65009259758611 100.09327294638308 L95.05831893625086 102.37822879341346 L95.05831893625086 102.37822879341346 z"/>
<path fill="#008000" stroke="#008000" d="M106.43803892830233 89.47046927167501 L106.43803892830233 89.47046927167501 L104.49593268618327 92.32819182552826 L104.49593268618327 92.32819182552826 z"/>
<path fill="#008000" stroke="#008000" d="M102.3782286984426 95.05831899040858 L102.3782286984426 95.05831899040858 L104.49593238426414 92.32819184942485 L104.49593238426414 92.32819184942485 z"/>
<path fill="#008000" stroke="#008000" d="M102.37822879341346 95.05831893625086 L102.37822879341346 95.05831893625086 L100.09327294638308 97.65009259758611 L100.09327294638308 97.65009259758611 z"/>
<path fill="#008000" stroke="#008000" d="M111.13770722650808 80.24684900148146 L111.13770722650808 80.24684900148146 L112.3081100752126 76.9959300270782 L112.3081100752126 76.9959300270782 z"/>
<path fill="#008000" stroke="#008000" d="M109.76548859675754 83.41785939276276 L109.76548859675754 83.41785939276276 L111.1377073855286 80.24684886861719 L111.1377073855286 80.24684886861719 z"/>
<path fill="#008000" stroke="#008000" d="M108.19686877739001 86.49644937704909 L108.19686877739001 86.49644937704909 L109.7654887405209 83.41785935826334 L109.7654887405209 83.41785935826334 z"/>
<path fill="#008000" stroke="#008000" d="M108.19686898493622 86.49644939969293 L108.19686898493622 86.49644939969293 L106.43803859595434 89.47046916964972 L106.43803859595434 89.47046916964972 z"/>
<path fill="#008000" stroke="#008000" d="M115.00000000000001 59.99999999999999 L115.00000000000001 59.99999999999999 L114.89147001872612 56.54651999941151 L114.89147001872612 56.54651999941151 z"/>
<path fill="#008000" stroke="#008000" d="M114.89147001872614 63.453480000588485 L114.89147001872614 63.453480000588485 L115.00000000000003 60 L115.00000000000003 60 z"/>
<path fill="#008000" stroke="#008000" d="M113.27207457794754 73.67794133001671 L113.27207457794754 73.67794133001671 L112.3081097777448 76.99592993542889 L112.3081097777448 76.99592993542889 z"/>
<path fill="#008000" stroke="#008000" d="M114.02579933777153 70.3059698519744 L114.02579933777153 70.3059698519744 L113.2720744860098 73.67794100274199 L113.2720744860098 73.67794100274199 z"/>
<path fill="#008000" stroke="#008000" d="M114.56630827442908 66.89332972669642 L114.56630827442908 66.89332972669642 L114.02579917539856 70.30596986939595 L114.02579917539856 70.30596986939595 z"/>
<path fill="#008000" stroke="#008000" d="M114.56630838313436 66.8933298471612 L114.56630838313436 66.8933298471612 L114.89146992939973 63.453479993326305 L114.89146992939973 63.453479993326305 z"/>
<path fill="#008000" stroke="#008000" d="M114.02579933777152 49.6940301480256 L114.02579933777152 49.6940301480256 L113.27207448600979 46.322058997258004 L113.27207448600979 46.322058997258004 z"/>
<path fill="#008000" stroke="#008000" d="M114.56630838313434 53.1066701528388 L114.56630838313434 53.1066701528388 L114.89146992939972 56.54652000667369 L114.89146992939972 56.54652000667369 z"/>
<path fill="#008000" stroke="#008000" d="M114.56630827442906 53.106670273303585 L114.56630827442906 53.106670273303585 L114.02579917539855 49.694030130604034 L114.02579917539855 49.694030130604034 z"/>
<path fill="#008000" stroke="#008000" d="M109.76548874052087 36.58214064173667 L109.76548874052087 36.58214064173667 L108.19686877738998 33.50355062295091 L108.19686877738998 33.50355062295091 z"/>
<path fill="#008000" stroke="#008000" d="M112.30810977774479 43.004070064571096 L112.30810977774479 43.004070064571096 L113.2720745779475 46.32205866998329 L113.2720745779475 46.32205866998329 z"/>
<path fill="#008000" stroke="#008000" d="M111.13770722650807 39.75315099851853 L111.13770722650807 39.75315099851853 L112.30811007521258 43.0040699729218 L112.30811007521258 43.0040699729218 z"/>
<path fill="#008000" stroke="#008000" d="M111.13770738552857 39.75315113138281 L111.13770738552857 39.75315113138281 L109.76548859675752 36.58214060723724 L109.76548859675752 36.58214060723724 z"/>
<path fill="#008000" stroke="#008000" d="M100.09327266712775 22.34990733287225 L100.09327266712775 22.34990733287225 L97.65009266712775 19.906727332872247 L97.65009266712775 19.906727332872247 z"/>
<path fill="#008000" stroke="#008000" d="M106.43803859595432 30.529530830350296 L106.43803859595432 30.529530830350296 L108.19686898493617 33.503550600307065 L108.19686898493617 33.503550600307065 z"/>
<path fill="#008000" stroke="#008000" d="M104.49593268618324 27.67180817447175 L104.49593268618324 27.67180817447175 L106.4380389283023 30.529530728324993 L106.4380389283023 30.529530728324993 z"/>
<path fill="#008000" stroke="#008000" d="M102.37822869844257 24.941681009591427 L102.37822869844257 24.941681009591427 L104.49593238426411 27.67180815057517 L104.49593238426411 27.67180815057517 z"/>
<path fill="#008000" stroke="#008000" d="M102.37822879341343 24.941681063749154 L102.37822879341343 24.941681063749154 L100.09327294638305 22.349907402413915 L100.09327294638305 22.349907402413915 z"/>
<path fill="#008000" stroke="#008000" d="M95.05831893625083 17.621771206586573 L95.05831893625083 17.621771206586573 L97.65009259758608 19.906727053616944 L97.65009259758608 19.906727053616944 z"/>
<path fill="#008000" stroke="#008000" d="M92.32819182552824 15.504067313816767 L92.32819182552824 15.504067313816767 L89.47046927167499 13.5619610716977 L89.47046927167499 13.5619610716977 z"/>
<path fill="#008000" stroke="#008000" d="M92.32819184942483 15.504067615735888 L92.32819184942483 15.504067615735888 L95.05831899040855 17.62177130155743 L95.05831899040855 17.62177130155743 z"/>
<path fill="#008000" stroke="#008000" d="M63.453480000588485 5.1085299812739144 L63.453480000588485 5.1085299812739144 L59.99999999999999 5.000000000000026 L59.99999999999999 5.000000000000026 z"/>
<path fill="#008000" stroke="#008000" d="M73.67794100274199 6.727925513990246 L73.67794100274199 6.727925513990246 L70.30596985197438 5.974200662228511 L70.30596985197438 5.974200662228511 z"/>
<path fill="#008000" stroke="#008000" d="M86.49644939969292 11.803131015063826 L86.49644939969292 11.803131015063826 L89.47046916964969 13.561961404045698 L89.47046916964969 13.561961404045698 z"/>
<path fill="#008000" stroke="#008000" d="M83.41785935826331 10.234511259479154 L83.41785935826331 10.234511259479154 L86.49644937704906 11.803131222610027 L86.49644937704906 11.803131222610027 z"/>
<path fill="#008000" stroke="#008000" d="M76.99592993542888 7.691890222255233 L76.99592993542888 7.691890222255233 L73.6779413300167 6.7279254220525155 L73.6779413300167 6.7279254220525155 z"/>
<path fill="#008000" stroke="#008000" d="M80.24684900148144 8.862292773491959 L80.24684900148144 8.862292773491959 L76.99593002707817 7.691889924787446 L76.99593002707817 7.691889924787446 z"/>
<path fill="#008000" stroke="#008000" d="M80.24684886861716 8.862292614471444 L80.24684886861716 8.862292614471444 L83.41785939276274 10.234511403242502 L83.41785939276274 10.234511403242502 z"/>
<path fill="#008000" stroke="#008000" d="M66.89332972669641 5.433691725570969 L66.89332972669641 5.433691725570969 L70.30596986939595 5.974200824601488 L70.30596986939595 5.974200824601488 z"/>
<path fill="#008000" stroke="#008000" d="M66.8933298471612 5.433691616865699 L66.8933298471612 5.433691616865699 L63.4534799933263 5.108530070600317 L63.4534799933263 5.108530070600317 z"/>
<path fill="#008000" stroke="#008000" d="M56.54651999941151 5.108529981273912 L56.54651999941151 5.108529981273912 L60 5.00000000000003 L60 5.00000000000003 z"/>
<path fill="#008000" stroke="#008000" d="M53.10667015283881 5.433691616865705 L53.10667015283881 5.433691616865705 L56.546520006673695 5.108530070600322 L56.546520006673695 5.108530070600322 z"/>
<path fill="#008000" stroke="#008000" d="M46.322058669983306 6.72792542205253 L46.322058669983306 6.72792542205253 L43.00407006457111 7.691890222255246 L43.00407006457111 7.691890222255246 z"/>
<path fill="#008000" stroke="#008000" d="M49.69403013060404 5.97420082460149 L49.69403013060404 5.97420082460149 L53.10667027330359 5.433691725570984 L53.10667027330359 5.433691725570984 z"/>
<path fill="#008000" stroke="#008000" d="M49.694030148025604 5.9742006622285215 L49.694030148025604 5.9742006622285215 L46.32205899725802 6.727925513990253 L46.32205899725802 6.727925513990253 z"/>
<path fill="#008000" stroke="#008000" d="M39.75315113138283 8.86229261447147 L39.75315113138283 8.86229261447147 L36.582140607237264 10.23451140324252 L36.582140607237264 10.23451140324252 z"/>
<path fill="#008000" stroke="#008000" d="M39.75315099851855 8.862292773491976 L39.75315099851855 8.862292773491976 L43.00406997292182 7.691889924787468 L43.00406997292182 7.691889924787468 z"/>
<path fill="#008000" stroke="#008000" d="M33.503550600307086 11.803131015063858 L33.503550600307086 11.803131015063858 L30.529530830350325 13.561961404045718 L30.529530830350325 13.561961404045718 z"/>
<path fill="#008000" stroke="#008000" d="M27.67180817447177 15.504067313816785 L27.67180817447177 15.504067313816785 L30.529530728325025 13.561961071697725 L30.529530728325025 13.561961071697725 z"/>
<path fill="#008000" stroke="#008000" d="M24.941681009591452 17.62177130155746 L24.941681009591452 17.62177130155746 L27.6718081505752 15.504067615735913 L27.6718081505752 15.504067615735913 z"/>
<path fill="#008000" stroke="#008000" d="M19.90672705361697 22.34990740241394 L19.90672705361697 22.34990740241394 L17.6217712065866 24.94168106374918 L17.6217712065866 24.94168106374918 z"/>
<path fill="#008000" stroke="#008000" d="M22.349907402413937 19.906727053616965 L22.349907402413937 19.906727053616965 L24.941681063749186 17.621771206586605 L24.941681063749186 17.621771206586605 z"/>
<path fill="#008000" stroke="#008000" d="M22.349907332872274 19.906727332872272 L22.349907332872274 19.906727332872272 L19.90672733287227 22.34990733287227 L19.90672733287227 22.34990733287227 z"/>
<path fill="#008000" stroke="#008000" d="M7.691890222255252 43.00407006457112 L7.691890222255252 43.00407006457112 L6.727925422052529 46.322058669983306 L6.727925422052529 46.322058669983306 z"/>
<path fill="#008000" stroke="#008000" d="M15.504067615735906 27.671808150575192 L15.504067615735906 27.671808150575192 L17.621771301557462 24.941681009591456 L17.621771301557462 24.941681009591456 z"/>
<path fill="#008000" stroke="#008000" d="M13.561961071697718 30.529530728325017 L13.561961071697718 30.529530728325017 L15.504067313816789 27.671808174471774 L15.504067313816789 27.671808174471774 z"/>
<path fill="#008000" stroke="#008000" d="M11.803131015063848 33.50355060030708 L11.803131015063848 33.50355060030708 L13.56196140404572 30.529530830350325 L13.56196140404572 30.529530830350325 z"/>
<path fill="#008000" stroke="#008000" d="M10.234511259479168 36.582140641736686 L10.234511259479168 36.582140641736686 L11.803131222610052 33.50355062295093 L11.803131222610052 33.50355062295093 z"/>
<path fill="#008000" stroke="#008000" d="M8.86229277349198 39.75315099851855 L8.86229277349198 39.75315099851855 L7.6918899247874615 43.00406997292181 L7.6918899247874615 43.00406997292181 z"/>
<path fill="#008000" stroke="#008000" d="M8.86229261447146 39.75315113138282 L8.86229261447146 39.75315113138282 L10.23451140324252 36.582140607237264 L10.23451140324252 36.582140607237264 z"/>
<path fill="#008000" stroke="#008000" d="M33.50355062295093 11.803131222610052 L33.50355062295093 11.803131222610052 L36.58214064173669 10.234511259479179 L36.58214064173669 10.234511259479179 z"/>
<path fill="#008000" stroke="#008000" d="M5.97420066222852 49.694030148025604 L5.97420066222852 49.694030148025604 L6.7279255139902645 46.32205899725802 L6.7279255139902645 46.32205899725802 z"/>
<path fill="#008000" stroke="#008000" d="M5.433691725570975 53.10667027330359 L5.433691725570975 53.10667027330359 L5.974200824601501 49.69403013060404 L5.974200824601501 49.69403013060404 z"/>
<path fill="#008000" stroke="#008000" d="M5.000000000000023 60 L5.000000000000023 60 L5.108529981273919 56.54651999941151 L5.108529981273919 56.54651999941151 z"/>
<path fill="#008000" stroke="#008000" d="M5.108530070600315 56.546520006673695 L5.108530070600315 56.546520006673695 L5.4336916168657075 53.10667015283881 L5.4336916168657075 53.10667015283881 z"/>
<path fill="#008000" stroke="#008000" d="M5.108530070600321 63.4534799933263 L5.108530070600321 63.4534799933263 L5.433691616865696 66.8933298471612 L5.433691616865696 66.8933298471612 z"/>
<path fill="#008000" stroke="#008000" d="M5.1085299812739065 63.453480000588485 L5.1085299812739065 63.453480000588485 L5.000000000000033 59.99999999999999 L5.000000000000033 59.99999999999999 z"/>
<path fill="#008000" stroke="#008000" d="M5.974200824601482 70.30596986939595 L5.974200824601482 70.30596986939595 L5.43369172557098 66.89332972669641 L5.43369172557098 66.89332972669641 z"/>
<path fill="#008000" stroke="#008000" d="M6.72792551399024 73.67794100274199 L6.72792551399024 73.67794100274199 L5.974200662228517 70.30596985197438 L5.974200662228517 70.30596985197438 z"/>
<path fill="#008000" stroke="#008000" d="M7.691890222255223 76.99592993542888 L7.691890222255223 76.99592993542888 L6.727925422052523 73.6779413300167 L6.727925422052523 73.6779413300167 z"/>
<path fill="#008000" stroke="#008000" d="M8.862292773491957 80.24684900148144 L8.862292773491957 80.24684900148144 L7.691889924787449 76.99593002707817 L7.691889924787449 76.99593002707817 z"/>
<path fill="#008000" stroke="#008000" d="M10.234511403242497 83.41785939276275 L10.234511403242497 83.41785939276275 L8.862292614471453 80.24684886861716 L8.862292614471453 80.24684886861716 z"/>
<path fill="#008000" stroke="#008000" d="M11.803131222610016 86.49644937704907 L11.803131222610016 86.49644937704907 L10.234511259479161 83.41785935826331 L10.234511259479161 83.41785935826331 z"/>
<path fill="#008000" stroke="#008000" d="M13.561961404045695 89.47046916964969 L13.561961404045695 89.47046916964969 L11.80313101506383 86.4964493996929 L11.80313101506383 86.4964493996929 z"/>
<path fill="#008000" stroke="#008000" d="M24.941681009591434 102.37822869844256 L24.941681009591434 102.37822869844256 L27.671808150575167 104.49593238426412 L27.671808150575167 104.49593238426412 z"/>
<path fill="#008000" stroke="#008000" d="M19.906727053616937 97.65009259758608 L19.906727053616937 97.65009259758608 L17.621771206586573 95.05831893625083 L17.621771206586573 95.05831893625083 z"/>
<path fill="#008000" stroke="#008000" d="M15.504067615735892 92.32819184942481 L15.504067615735892 92.32819184942481 L17.62177130155742 95.05831899040857 L17.62177130155742 95.05831899040857 z"/>
<path fill="#008000" stroke="#008000" d="M15.50406731381676 92.32819182552825 L15.50406731381676 92.32819182552825 L13.561961071697711 89.47046927167499 L13.561961071697711 89.47046927167499 z"/>
<path fill="#008000" stroke="#008000" d="M22.34990740241392 100.09327294638305 L22.34990740241392 100.09327294638305 L24.94168106374915 102.37822879341343 L24.94168106374915 102.37822879341343 z"/>
<path fill="#008000" stroke="#008000" d="M22.349907332872238 100.09327266712775 L22.349907332872238 100.09327266712775 L19.90672733287225 97.65009266712775 L19.90672733287225 97.65009266712775 z"/>
<path fill="#008000" stroke="#008000" d="M30.52953072832499 106.43803892830232 L30.52953072832499 106.43803892830232 L27.671808174471757 104.49593268618324 L27.671808174471757 104.49593268618324 z"/>
<path fill="#008000" stroke="#008000" d="M36.58214060723724 109.7654885967575 L36.58214060723724 109.7654885967575 L39.75315113138281 111.13770738552857 L39.75315113138281 111.13770738552857 z"/>
<path fill="#008000" stroke="#008000" d="M76.99592993542889 112.3081097777448 L76.99592993542889 112.3081097777448 L73.67794133001671 113.27207457794752 L73.67794133001671 113.27207457794752 z"/>
<path fill="#008000" stroke="#008000" d="M33.50355060030706 108.19686898493619 L33.50355060030706 108.19686898493619 L30.529530830350303 106.43803859595431 L30.529530830350303 106.43803859595431 z"/>
<path fill="#008000" stroke="#008000" d="M33.50355062295091 108.19686877738998 L33.50355062295091 108.19686877738998 L36.582140641736665 109.76548874052087 L36.582140641736665 109.76548874052087 z"/>
<path fill="#008000" stroke="#008000" d="M49.694030130604034 114.02579917539855 L49.694030130604034 114.02579917539855 L53.106670273303585 114.56630827442908 L53.106670273303585 114.56630827442908 z"/>
<path fill="#008000" stroke="#008000" d="M46.322058997258004 113.27207448600979 L46.322058997258004 113.27207448600979 L49.6940301480256 114.02579933777153 L49.6940301480256 114.02579933777153 z"/>
<path fill="#008000" stroke="#008000" d="M43.00406997292179 112.30811007521258 L43.00406997292179 112.30811007521258 L39.753150998518535 111.13770722650806 L39.753150998518535 111.13770722650806 z"/>
<path fill="#008000" stroke="#008000" d="M43.0040700645711 112.30810977774479 L43.0040700645711 112.30810977774479 L46.32205866998329 113.27207457794752 L46.32205866998329 113.27207457794752 z"/>
<path fill="#008000" stroke="#008000" d="M60 115.00000000000003 L60 115.00000000000003 L63.453480000588485 114.89147001872614 L63.453480000588485 114.89147001872614 z"/>
<path fill="#008000" stroke="#008000" d="M56.54651999941151 114.89147001872612 L56.54651999941151 114.89147001872612 L59.99999999999999 115.00000000000001 L59.99999999999999 115.00000000000001 z"/>
<path fill="#008000" stroke="#008000" d="M56.54652000667369 114.89146992939973 L56.54652000667369 114.89146992939973 L53.1066701528388 114.56630838313433 L53.1066701528388 114.56630838313433 z"/>
<path fill="#008000" stroke="#008000" d="M53.10667 114.56631 L56.54652 114.89147 L60 115 L63.45348 114.89147 L66.89333 114.56631 L70.30597 114.0258 L73.67794 113.27207 L76.99593 112.30811 L80.24685 111.13771 L83.41786 109.76549 L86.49645 108.19687 L89.47047 106.43804 L92.32819 104.49593 L95.05832 102.37823 L97.65009 100.09327 L100.09327 97.65009 L102.37823 95.05832 L104.49593 92.32819 L106.43804 89.47047 L108.19687 86.49645 L109.76549 83.41786 L111.13771 80.24685 L112.30811 76.99593 L113.27207 73.67794 L114.0258 70.30597 L114.56631 66.89333 L114.89147 63.45348 L115 60 L114.89147 56.54652 L114.56631 53.10667 L114.0258 49.69403 L113.27207 46.32206 L112.30811 43.00407 L111.13771 39.75315 L109.76549 36.58214 L108.19687 33.50355 L106.43804 30.52953 L104.49593 27.67181 L102.37823 24.94168 L100.09327 22.34991 L97.65009 19.90673 L95.05832 17.62177 L92.32819 15.50407 L89.47047 13.56196 L86.49645 11.80313 L83.41786 10.23451 L80.24685 8.86229 L76.99593 7.69189 L73.67794 6.72793 L70.30597 5.9742 L66.89333 5.43369 L63.45348 5.10853 L60 5 L56.54652 5.10853 L53.10667 5.43369 L49.69403 5.9742 L46.32206 6.72793 L43.00407 7.69189 L39.75315 8.86229 L36.58214 10.23451 L33.50355 11.80313 L30.52953 13.56196 L27.67181 15.50407 L24.94168 17.62177 L22.34991 19.90673 L19.90673 22.34991 L17.62177 24.94168 L15.50407 27.67181 L13.56196 30.52953 L11.80313 33.50355 L10.23451 36.58214 L8.86229 39.75315 L7.69189 43.00407 L6.72793 46.32206 L5.9742 49.69403 L5.43369 53.10667 L5.10853 56.54652 L5 60 L5.10853 63.45348 L5.43369 66.89333 L5.9742 70.30597 L6.72793 73.67794 L7.69189 76.99593 L8.86229 80.24685 L10.23451 83.41786 L11.80313 86.49645 L13.56196 89.47047 L15.50407 92.32819 L17.62177 95.05832 L19.90673 97.65009 L22.34991 100.09327 L24.94168 102.37823 L27.67181 104.49593 L30.52953 106.43804 L33.50355 108.19687 L36.58214 109.76549 L39.75315 111.13771 L43.00407 112.30811 L46.32206 113.27207 L49.69403 114.0258 z"/>
</svg>