<?xml version="1.0" encoding="UTF-8"?>
<!-- Generated by jsxcad -->
<!DOCTYPE svg PUBLIC "-//W3C//DTD SVG 1.1 Tiny//EN" "http://www.w3.org/Graphics/SVG/1.1/DTD/svg11-tiny.dtd">
<svg baseProfile="tiny" height="110.00000000000006mm" width="110.00000000000006mm" viewBox="0 0 110.00000000000006 110.00000000000006" version="1.1" stroke="black" stroke-width=".1" fill="none" xmlns="http://www.w3.org/2000/svg">
<path fill="#008000" stroke="#008000" d="M51.54652 109.89147 L48.10667 109.56631 L44.69403 109.0258 L41.32206 108.27207 L38.00407 107.30811 L34.75315 106.13771 L31.58214 104.76549 L28.50355 103.19687 L25.52953 101.43804 L22.67181 99.49593 L19.94168 97.37823 L17.34991 95.09327 L14.90673 92.65009 L12.62177 90.05832 L10.50407 87.32819 L8.56196 84.47047 L6.80313 81.49645 L5.23451 78.41786 L3.86229 75.24685 L2.69189 71.99593 L1.72793 68.67794 L0.9742 65.30597 L0.43369 61.89333 L0.10853 58.45348 L0 55 L0.10853 51.54652 L0.43369 48.10667 L0.9742 44.69403 L1.72793 41.32206 L2.69189 38.00407 L3.86229 34.75315 L5.23451 31.58214 L6.80313 28.50355 L8.56196 25.52953 L10.50407 22.67181 L12.62177 19.94168 L14.90673 17.34991 L17.34991 14.90673 L19.94168 12.62177 L22.67181 10.50407 L25.52953 8.56196 L28.50355 6.80313 L31.58214 5.23451 L34.75315 3.86229 L38.00407 2.69189 L41.32206 1.72793 L44.69403 0.9742 L48.10667 0.43369 L51.54652 0.10853 L55 0 L58.45348 0.10853 L61.89333 0.43369 L65.30597 0.9742 L68.67794 1.72793 L71.99593 2.69189 L75.24685 3.86229 L78.41786 5.23451 L81.49645 6.80313 L84.47047 8.56196 L87.32819 10.50407 L90.05832 12.62177 L92.65009 14.90673 L95.09327 17.34991 L97.37823 19.94168 L99.49593 22.67181 L101.43804 25.52953 L103.19687 28.50355 L104.76549 31.58214 L106.13771 34.75315 L107.30811 38.00407 L108.27207 41.32206 L109.0258 44.69403 L109.56631 48.10667 L109.89147 51.54652 L110 55 L109.89147 58.45348 L109.56631 61.89333 L109.0258 65.30597 L108.27207 68.67794 L107.30811 71.99593 L106.13771 75.24685 L104.76549 78.41786 L103.19687 81.49645 L101.43804 84.47047 L99.49593 87.32819 L97.37823 90.05832 L95.09327 92.65009 L92.65009 95.09327 L90.05832 97.37823 L87.32819 99.49593 L84.47047 101.43804 L81.49645 103.19687 L78.41786 104.76549 L75.24685 106.13771 L71.99593 107.30811 L68.67794 108.27207 L65.30597 109.0258 L61.89333 109.56631 L58.45348 109.89147 L55 110 z"/>
<path fill="#008000" stroke="#008000" d="M65.3059698519744 109.02579933777153 L65.3059698519744 109.02579933777153 L68.67794100274199 108.2720744860098 L68.67794100274199 108.2720744860098 z"/>
<path fill="#008000" stroke="#008000" d="M58.453479993326305 109.89146992939973 L58.453479993326305 109.89146992939973 L61.89332984716119 109.56630838313436 L61.89332984716119 109.56630838313436 z"/>
<path fill="#008000" stroke="#008000" d="M61.893329726696415 109.56630827442908 L61.893329726696415 109.56630827442908 L65.30596986939595 109.02579917539856 L65.30596986939595 109.02579917539856 z"/>
<path fill="#008000" stroke="#008000" d="M71.9959300270782 107.3081100752126 L71.9959300270782 107.3081100752126 L75.24684900148146 106.13770722650808 L75.24684900148146 106.13770722650808 z"/>
<path fill="#008000" stroke="#008000" d="M78.41785939276276 104.76548859675754 L78.41785939276276 104.76548859675754 L75.24684886861719 106.1377073855286 L75.24684886861719 106.1377073855286 z"/>
<path fill="#008000" stroke="#008000" d="M87.32819182552826 99.49593268618327 L87.32819182552826 99.49593268618327 L84.47046927167503 101.43803892830233 L84.47046927167503 101.43803892830233 z"/>
<path fill="#008000" stroke="#008000" d="M81.49644939969293 103.19686898493622 L81.49644939969293 103.19686898493622 L84.47046916964972 101.43803859595434 L84.47046916964972 101.43803859595434 z"/>
<path fill="#008000" stroke="#008000" d="M81.49644937704909 103.19686877739001 L81.49644937704909 103.19686877739001 L78.41785935826334 104.76548874052088 L78.41785935826334 104.76548874052088 z"/>
<path fill="#008000" stroke="#008000" d="M90.05831899040858 97.3782286984426 L90.05831899040858 97.3782286984426 L87.32819184942484 99.49593238426414 L87.32819184942484 99.49593238426414 z"/>
<path fill="#008000" stroke="#008000" d="M92.65009266712778 95.09327266712778 L92.65009266712778 95.09327266712778 L95.09327266712778 92.65009266712778 L95.09327266712778 92.65009266712778 z"/>
<path fill="#008000" stroke="#008000" d="M92.65009259758611 95.09327294638308 L92.65009259758611 95.09327294638308 L90.05831893625086 97.37822879341346 L90.05831893625086 97.37822879341346 z"/>
<path fill="#008000" stroke="#008000" d="M101.43803892830233 84.47046927167501 L101.43803892830233 84.47046927167501 L99.49593268618327 87.32819182552826 L99.49593268618327 87.32819182552826 z"/>
<path fill="#008000" stroke="#008000" d="M97.3782286984426 90.05831899040858 L97.3782286984426 90.05831899040858 L99.49593238426414 87.32819184942485 L99.49593238426414 87.32819184942485 z"/>
<path fill="#008000" stroke="#008000" d="M97.37822879341346 90.05831893625086 L97.37822879341346 90.05831893625086 L95.09327294638308 92.65009259758611 L95.09327294638308 92.65009259758611 z"/>
<path fill="#008000" stroke="#008000" d="M106.13770722650808 75.24684900148146 L106.13770722650808 75.24684900148146 L107.3081100752126 71.9959300270782 L107.3081100752126 71.9959300270782 z"/>
<path fill="#008000" stroke="#008000" d="M104.76548859675754 78.41785939276276 L104.76548859675754 78.41785939276276 L106.1377073855286 75.24684886861719 L106.1377073855286 75.24684886861719 z"/>
<path fill="#008000" stroke="#008000" d="M103.19686877739001 81.49644937704909 L103.19686877739001 81.49644937704909 L104.7654887405209 78.41785935826334 L104.7654887405209 78.41785935826334 z"/>
<path fill="#008000" stroke="#008000" d="M103.19686898493622 81.49644939969293 L103.19686898493622 81.49644939969293 L101.43803859595434 84.47046916964972 L101.43803859595434 84.47046916964972 z"/>
<path fill="#008000" stroke="#008000" d="M110.00000000000001 54.99999999999999 L110.00000000000001 54.99999999999999 L109.89147001872612 51.54651999941151 L109.89147001872612 51.54651999941151 z"/>
<path fill="#008000" stroke="#008000" d="M109.89147001872614 58.453480000588485 L109.89147001872614 58.453480000588485 L110.00000000000003 55 L110.00000000000003 55 z"/>
<path fill="#008000" stroke="#008000" d="M108.27207457794754 68.67794133001671 L108.27207457794754 68.67794133001671 L107.3081097777448 71.99592993542889 L107.3081097777448 71.99592993542889 z"/>
<path fill="#008000" stroke="#008000" d="M109.02579933777153 65.3059698519744 L109.02579933777153 65.3059698519744 L108.2720744860098 68.67794100274199 L108.2720744860098 68.67794100274199 z"/>
<path fill="#008000" stroke="#008000" d="M109.56630827442908 61.893329726696415 L109.56630827442908 61.893329726696415 L109.02579917539856 65.30596986939595 L109.02579917539856 65.30596986939595 z"/>
<path fill="#008000" stroke="#008000" d="M109.56630838313436 61.89332984716119 L109.56630838313436 61.89332984716119 L109.89146992939973 58.453479993326305 L109.89146992939973 58.453479993326305 z"/>
<path fill="#008000" stroke="#008000" d="M109.02579933777152 44.6940301480256 L109.02579933777152 44.6940301480256 L108.27207448600979 41.322058997258004 L108.27207448600979 41.322058997258004 z"/>
<path fill="#008000" stroke="#008000" d="M109.56630838313434 48.1066701528388 L109.56630838313434 48.1066701528388 L109.89146992939972 51.54652000667369 L109.89146992939972 51.54652000667369 z"/>
<path fill="#008000" stroke="#008000" d="M109.56630827442906 48.106670273303585 L109.56630827442906 48.106670273303585 L109.02579917539855 44.694030130604034 L109.02579917539855 44.694030130604034 z"/>
<path fill="#008000" stroke="#008000" d="M104.76548874052087 31.582140641736668 L104.76548874052087 31.582140641736668 L103.19686877738998 28.503550622950915 L103.19686877738998 28.503550622950915 z"/>
<path fill="#008000" stroke="#008000" d="M107.30810977774479 38.004070064571096 L107.30810977774479 38.004070064571096 L108.2720745779475 41.32205866998329 L108.2720745779475 41.32205866998329 z"/>
<path fill="#008000" stroke="#008000" d="M106.13770722650807 34.75315099851853 L106.13770722650807 34.75315099851853 L107.30811007521258 38.0040699729218 L107.30811007521258 38.0040699729218 z"/>
<path fill="#008000" stroke="#008000" d="M106.13770738552857 34.75315113138281 L106.13770738552857 34.75315113138281 L104.76548859675752 31.58214060723724 L104.76548859675752 31.58214060723724 z"/>
<path fill="#008000" stroke="#008000" d="M95.09327266712775 17.34990733287225 L95.09327266712775 17.34990733287225 L92.65009266712775 14.906727332872249 L92.65009266712775 14.906727332872249 z"/>
<path fill="#008000" stroke="#008000" d="M101.43803859595432 25.529530830350296 L101.43803859595432 25.529530830350296 L103.19686898493617 28.50355060030707 L103.19686898493617 28.50355060030707 z"/>
<path fill="#008000" stroke="#008000" d="M99.49593268618324 22.67180817447175 L99.49593268618324 22.67180817447175 L101.4380389283023 25.529530728324993 L101.4380389283023 25.529530728324993 z"/>
<path fill="#008000" stroke="#008000" d="M97.37822869844257 19.941681009591427 L97.37822869844257 19.941681009591427 L99.49593238426411 22.67180815057517 L99.49593238426411 22.67180815057517 z"/>
<path fill="#008000" stroke="#008000" d="M97.37822879341343 19.941681063749154 L97.37822879341343 19.941681063749154 L95.09327294638305 17.349907402413915 L95.09327294638305 17.349907402413915 z"/>
<path fill="#008000" stroke="#008000" d="M90.05831893625083 12.621771206586574 L90.05831893625083 12.621771206586574 L92.65009259758608 14.906727053616946 L92.65009259758608 14.906727053616946 z"/>
<path fill="#008000" stroke="#008000" d="M87.32819182552824 10.504067313816767 L87.32819182552824 10.504067313816767 L84.47046927167499 8.5619610716977 L84.47046927167499 8.5619610716977 z"/>
<path fill="#008000" stroke="#008000" d="M87.32819184942483 10.504067615735888 L87.32819184942483 10.504067615735888 L90.05831899040855 12.621771301557432 L90.05831899040855 12.621771301557432 z"/>
<path fill="#008000" stroke="#008000" d="M58.453480000588485 0.10852998127391501 L58.453480000588485 0.10852998127391501 L54.99999999999999 2.6245388888809878e-14 L54.99999999999999 2.6245388888809878e-14 z"/>
<path fill="#008000" stroke="#008000" d="M68.67794100274199 1.727925513990246 L68.67794100274199 1.727925513990246 L65.30596985197438 0.9742006622285112 L65.30596985197438 0.9742006622285112 z"/>
<path fill="#008000" stroke="#008000" d="M81.49644939969292 6.803131015063827 L81.49644939969292 6.803131015063827 L84.47046916964969 8.561961404045698 L84.47046916964969 8.561961404045698 z"/>
<path fill="#008000" stroke="#008000" d="M78.41785935826331 5.234511259479155 L78.41785935826331 5.234511259479155 L81.49644937704906 6.803131222610027 L81.49644937704906 6.803131222610027 z"/>
<path fill="#008000" stroke="#008000" d="M71.99592993542888 2.6918902222552332 L71.99592993542888 2.6918902222552332 L68.6779413300167 1.7279254220525155 L68.6779413300167 1.7279254220525155 z"/>
<path fill="#008000" stroke="#008000" d="M75.24684900148144 3.8622927734919594 L75.24684900148144 3.8622927734919594 L71.99593002707817 2.6918899247874464 L71.99593002707817 2.6918899247874464 z"/>
<path fill="#008000" stroke="#008000" d="M75.24684886861716 3.862292614471445 L75.24684886861716 3.862292614471445 L78.41785939276274 5.234511403242502 L78.41785939276274 5.234511403242502 z"/>
<path fill="#008000" stroke="#008000" d="M61.8933297266964 0.43369172557096874 L61.8933297266964 0.43369172557096874 L65.30596986939595 0.9742008246014883 L65.30596986939595 0.9742008246014883 z"/>
<path fill="#008000" stroke="#008000" d="M61.89332984716119 0.433691616865698 L61.89332984716119 0.433691616865698 L58.4534799933263 0.10853007060031676 L58.4534799933263 0.10853007060031676 z"/>
<path fill="#008000" stroke="#008000" d="M51.54651999941151 0.10852998127391222 L51.54651999941151 0.10852998127391222 L55 3.054194622075905e-14 L55 3.054194622075905e-14 z"/>
<path fill="#008000" stroke="#008000" d="M48.10667015283881 0.4336916168657049 L48.10667015283881 0.4336916168657049 L51.546520006673695 0.10853007060032258 L51.546520006673695 0.10853007060032258 z"/>
<path fill="#008000" stroke="#008000" d="M41.322058669983306 1.7279254220525302 L41.322058669983306 1.7279254220525302 L38.00407006457111 2.691890222255246 L38.00407006457111 2.691890222255246 z"/>
<path fill="#008000" stroke="#008000" d="M44.69403013060404 0.9742008246014899 L44.69403013060404 0.9742008246014899 L48.10667027330359 0.43369172557098473 L48.10667027330359 0.43369172557098473 z"/>
<path fill="#008000" stroke="#008000" d="M44.694030148025604 0.974200662228522 L44.694030148025604 0.974200662228522 L41.32205899725802 1.7279255139902532 L41.32205899725802 1.7279255139902532 z"/>
<path fill="#008000" stroke="#008000" d="M34.75315113138283 3.86229261447147 L34.75315113138283 3.86229261447147 L31.58214060723726 5.234511403242521 L31.58214060723726 5.234511403242521 z"/>
<path fill="#008000" stroke="#008000" d="M34.75315099851855 3.862292773491977 L34.75315099851855 3.862292773491977 L38.00406997292182 2.6918899247874677 L38.00406997292182 2.6918899247874677 z"/>
<path fill="#008000" stroke="#008000" d="M28.50355060030709 6.803131015063858 L28.50355060030709 6.803131015063858 L25.529530830350325 8.561961404045718 L25.529530830350325 8.561961404045718 z"/>
<path fill="#008000" stroke="#008000" d="M22.67180817447177 10.504067313816785 L22.67180817447177 10.504067313816785 L25.529530728325025 8.561961071697725 L25.529530728325025 8.561961071697725 z"/>
<path fill="#008000" stroke="#008000" d="M19.941681009591452 12.621771301557457 L19.941681009591452 12.621771301557457 L22.6718081505752 10.504067615735913 L22.6718081505752 10.504067615735913 z"/>
<path fill="#008000" stroke="#008000" d="M14.90672705361697 17.34990740241394 L14.90672705361697 17.34990740241394 L12.621771206586601 19.941681063749183 L12.621771206586601 19.941681063749183 z"/>
<path fill="#008000" stroke="#008000" d="M17.349907402413937 14.906727053616965 L17.349907402413937 14.906727053616965 L19.941681063749186 12.621771206586606 L19.941681063749186 12.621771206586606 z"/>
<path fill="#008000" stroke="#008000" d="M17.349907332872274 14.906727332872272 L17.349907332872274 14.906727332872272 L14.90672733287227 17.34990733287227 L14.90672733287227 17.34990733287227 z"/>
<path fill="#008000" stroke="#008000" d="M2.6918902222552528 38.00407006457112 L2.6918902222552528 38.00407006457112 L1.7279254220525289 41.322058669983306 L1.7279254220525289 41.322058669983306 z"/>
<path fill="#008000" stroke="#008000" d="M10.504067615735906 22.671808150575192 L10.504067615735906 22.671808150575192 L12.621771301557462 19.941681009591456 L12.621771301557462 19.941681009591456 z"/>
<path fill="#008000" stroke="#008000" d="M8.561961071697718 25.529530728325017 L8.561961071697718 25.529530728325017 L10.504067313816789 22.671808174471774 L10.504067313816789 22.671808174471774 z"/>
<path fill="#008000" stroke="#008000" d="M6.8031310150638475 28.503550600307086 L6.8031310150638475 28.503550600307086 L8.56196140404572 25.529530830350325 L8.56196140404572 25.529530830350325 z"/>
<path fill="#008000" stroke="#008000" d="M5.23451125947917 31.582140641736686 L5.23451125947917 31.582140641736686 L6.803131222610051 28.503550622950936 L6.803131222610051 28.503550622950936 z"/>
<path fill="#008000" stroke="#008000" d="M3.86229277349198 34.75315099851855 L3.86229277349198 34.75315099851855 L2.691889924787462 38.00406997292181 L2.691889924787462 38.00406997292181 z"/>
<path fill="#008000" stroke="#008000" d="M3.8622926144714613 34.75315113138282 L3.8622926144714613 34.75315113138282 L5.234511403242522 31.58214060723726 L5.234511403242522 31.58214060723726 z"/>
<path fill="#008000" stroke="#008000" d="M28.503550622950936 6.803131222610051 L28.503550622950936 6.803131222610051 L31.582140641736693 5.234511259479182 L31.582140641736693 5.234511259479182 z"/>
<path fill="#008000" stroke="#008000" d="M0.9742006622285199 44.694030148025604 L0.9742006622285199 44.694030148025604 L1.7279255139902645 41.32205899725802 L1.7279255139902645 41.32205899725802 z"/>
<path fill="#008000" stroke="#008000" d="M0.433691725570976 48.10667027330359 L0.433691725570976 48.10667027330359 L0.9742008246015006 44.69403013060404 L0.9742008246015006 44.69403013060404 z"/>
<path fill="#008000" stroke="#008000" d="M2.3706725931981055e-14 55 L2.3706725931981055e-14 55 L0.1085299812739192 51.54651999941151 L0.1085299812739192 51.54651999941151 z"/>
<path fill="#008000" stroke="#008000" d="M0.10853007060031511 51.546520006673695 L0.10853007060031511 51.546520006673695 L0.4336916168657081 48.10667015283881 L0.4336916168657081 48.10667015283881 z"/>
<path fill="#008000" stroke="#008000" d="M0.1085300706003219 58.4534799933263 L0.1085300706003219 58.4534799933263 L0.433691616865696 61.89332984716119 L0.433691616865696 61.89332984716119 z"/>
<path fill="#008000" stroke="#008000" d="M0.10852998127390726 58.453480000588485 L0.10852998127390726 58.453480000588485 L3.308060917758709e-14 54.99999999999999 L3.308060917758709e-14 54.99999999999999 z"/>
<path fill="#008000" stroke="#008000" d="M0.9742008246014827 65.30596986939595 L0.9742008246014827 65.30596986939595 L0.4336917255709795 61.8933297266964 L0.4336917255709795 61.8933297266964 z"/>
<path fill="#008000" stroke="#008000" d="M1.7279255139902396 68.67794100274199 L1.7279255139902396 68.67794100274199 L0.9742006622285175 65.30596985197438 L0.9742006622285175 65.30596985197438 z"/>
<path fill="#008000" stroke="#008000" d="M2.691890222255223 71.99592993542888 L2.691890222255223 71.99592993542888 L1.727925422052523 68.6779413300167 L1.727925422052523 68.6779413300167 z"/>
<path fill="#008000" stroke="#008000" d="M3.8622927734919577 75.24684900148144 L3.8622927734919577 75.24684900148144 L2.691889924787449 71.99593002707817 L2.691889924787449 71.99593002707817 z"/>
<path fill="#008000" stroke="#008000" d="M5.2345114032424975 78.41785939276275 L5.2345114032424975 78.41785939276275 L3.8622926144714547 75.24684886861716 L3.8622926144714547 75.24684886861716 z"/>
<path fill="#008000" stroke="#008000" d="M6.803131222610017 81.49644937704907 L6.803131222610017 81.49644937704907 L5.234511259479162 78.41785935826331 L5.234511259479162 78.41785935826331 z"/>
<path fill="#008000" stroke="#008000" d="M8.561961404045695 84.47046916964969 L8.561961404045695 84.47046916964969 L6.8031310150638316 81.4964493996929 L6.8031310150638316 81.4964493996929 z"/>
<path fill="#008000" stroke="#008000" d="M19.941681009591434 97.37822869844256 L19.941681009591434 97.37822869844256 L22.671808150575167 99.49593238426412 L22.671808150575167 99.49593238426412 z"/>
<path fill="#008000" stroke="#008000" d="M14.906727053616939 92.65009259758608 L14.906727053616939 92.65009259758608 L12.621771206586574 90.05831893625083 L12.621771206586574 90.05831893625083 z"/>
<path fill="#008000" stroke="#008000" d="M10.504067615735892 87.32819184942481 L10.504067615735892 87.32819184942481 L12.621771301557422 90.05831899040857 L12.621771301557422 90.05831899040857 z"/>
<path fill="#008000" stroke="#008000" d="M10.50406731381676 87.32819182552825 L10.50406731381676 87.32819182552825 L8.561961071697711 84.47046927167499 L8.561961071697711 84.47046927167499 z"/>
<path fill="#008000" stroke="#008000" d="M17.34990740241392 95.09327294638305 L17.34990740241392 95.09327294638305 L19.94168106374915 97.37822879341343 L19.94168106374915 97.37822879341343 z"/>
<path fill="#008000" stroke="#008000" d="M17.349907332872238 95.09327266712775 L17.349907332872238 95.09327266712775 L14.90672733287225 92.65009266712775 L14.90672733287225 92.65009266712775 z"/>
<path fill="#008000" stroke="#008000" d="M25.52953072832499 101.43803892830232 L25.52953072832499 101.43803892830232 L22.671808174471757 99.49593268618324 L22.671808174471757 99.49593268618324 z"/>
<path fill="#008000" stroke="#008000" d="M31.582140607237243 104.7654885967575 L31.582140607237243 104.7654885967575 L34.75315113138281 106.13770738552857 L34.75315113138281 106.13770738552857 z"/>
<path fill="#008000" stroke="#008000" d="M71.99592993542889 107.3081097777448 L71.99592993542889 107.3081097777448 L68.67794133001671 108.27207457794752 L68.67794133001671 108.27207457794752 z"/>
<path fill="#008000" stroke="#008000" d="M28.503550600307058 103.19686898493619 L28.503550600307058 103.19686898493619 L25.529530830350303 101.43803859595431 L25.529530830350303 101.43803859595431 z"/>
<path fill="#008000" stroke="#008000" d="M28.503550622950915 103.19686877738998 L28.503550622950915 103.19686877738998 L31.582140641736665 104.76548874052087 L31.582140641736665 104.76548874052087 z"/>
<path fill="#008000" stroke="#008000" d="M44.694030130604034 109.02579917539855 L44.694030130604034 109.02579917539855 L48.106670273303585 109.56630827442908 L48.106670273303585 109.56630827442908 z"/>
<path fill="#008000" stroke="#008000" d="M41.322058997258004 108.27207448600979 L41.322058997258004 108.27207448600979 L44.6940301480256 109.02579933777153 L44.6940301480256 109.02579933777153 z"/>
<path fill="#008000" stroke="#008000" d="M38.00406997292179 107.30811007521258 L38.00406997292179 107.30811007521258 L34.753150998518535 106.13770722650806 L34.753150998518535 106.13770722650806 z"/>
<path fill="#008000" stroke="#008000" d="M38.0040700645711 107.30810977774479 L38.0040700645711 107.30810977774479 L41.32205866998329 108.27207457794752 L41.32205866998329 108.27207457794752 z"/>
<path fill="#008000" stroke="#008000" d="M55 110.00000000000003 L55 110.00000000000003 L58.453480000588485 109.89147001872614 L58.453480000588485 109.89147001872614 z"/>
<path fill="#008000" stroke="#008000" d="M51.54651999941151 109.89147001872612 L51.54651999941151 109.89147001872612 L54.99999999999999 110.00000000000001 L54.99999999999999 110.00000000000001 z"/>
<path fill="#008000" stroke="#008000" d="M51.54652000667369 109.89146992939973 L51.54652000667369 109.89146992939973 L48.1066701528388 109.56630838313433 L48.1066701528388 109.56630838313433 z"/>
<path fill="#008000" stroke="#008000" d="M48.10667 109.56631 L51.54652 109.89147 L55 110 L58.45348 109.89147 L61.89333 109.56631 L65.30597 109.0258 L68.67794 108.27207 L71.99593 107.30811 L75.24685 106.13771 L78.41786 104.76549 L81.49645 103.19687 L84.47047 101.43804 L87.32819 99.49593 L90.05832 97.37823 L92.65009 95.09327 L95.09327 92.65009 L97.37823 90.05832 L99.49593 87.32819 L101.43804 84.47047 L103.19687 81.49645 L104.76549 78.41786 L106.13771 75.24685 L107.30811 71.99593 L108.27207 68.67794 L109.0258 65.30597 L109.56631 61.89333 L109.89147 58.45348 L110 55 L109.89147 51.54652 L109.56631 48.10667 L109.0258 44.69403 L108.27207 41.32206 L107.30811 38.00407 L106.13771 34.75315 L104.76549 31.58214 L103.19687 28.50355 L101.43804 25.52953 L99.49593 22.67181 L97.37823 19.94168 L95.09327 17.34991 L92.65009 14.90673 L90.05832 12.62177 L87.32819 10.50407 L84.47047 8.56196 L81.49645 6.80313 L78.41786 5.23451 L75.24685 3.86229 L71.99593 2.69189 L68.67794 1.72793 L65.30597 0.9742 L61.89333 0.43369 L58.45348 0.10853 L55 0 L51.54652 0.10853 L48.10667 0.43369 L44.69403 0.9742 L41.32206 1.72793 L38.00407 2.69189 L34.75315 3.86229 L31.58214 5.23451 L28.50355 6.80313 L25.52953 8.56196 L22.67181 10.50407 L19.94168 12.62177 L17.34991 14.90673 L14.90673 17.34991 L12.62177 19.94168 L10.50407 22.67181 L8.56196 25.52953 L6.80313 28.50355 L5.23451 31.58214 L3.86229 34.75315 L2.69189 38.00407 L1.72793 41.32206 L0.9742 44.69403 L0.43369 48.10667 L0.10853 51.54652 L0 55 L0.10853 58.45348 L0.43369 61.89333 L0.9742 65.30597 L1.72793 68.67794 L2.69189 71.99593 L3.86229 75.24685 L5.23451 78.41786 L6.80313 81.49645 L8.56196 84.47047 L10.50407 87.32819 L12.62177 90.05832 L14.90673 92.65009 L17.34991 95.09327 L19.94168 97.37823 L22.67181 99.49593 L25.52953 101.43804 L28.50355 103.19687 L31.58214 104.76549 L34.75315 106.13771 L38.00407 107.30811 L41.32206 108.27207 L44.69403 109.0258 z"/>
<path fill="#00ffff" stroke="#00ffff" d="M70.0394 92.46504 L76.96504 88.4606 L79.46781 92.78912 L72.54218 96.79356 z"/>
<path fill="#00ffff" stroke="#00ffff" d="M72.54218001111111 96.79356001921656 L72.54218001111111 96.79356001921656 L79.46781227221943 92.78912392978084 L79.46781227221943 92.78912392978084 z"/>
<path fill="#00ffff" stroke="#00ffff" d="M70.03940099925967 92.46503942222293 L70.03940099925967 92.46503942222293 L72.54217534959923 96.79356268888556 L72.54217534959923 96.79356268888556 z"/>
<path fill="#00ffff" stroke="#00ffff" d="M76.96503942350404 88.4606003333329 L76.96503942350404 88.4606003333329 L79.46781126829111 92.78911926666756 L79.46781126829111 92.78911926666756 z"/>
<path fill="#00ffff" stroke="#00ffff" d="M76.96503942222294 88.46059900074036 L76.96503942222294 88.46059900074036 L70.0393996666671 92.46503942350407 L70.0393996666671 92.46503942350407 z"/>
<path fill="#00ffff" stroke="#00ffff" d="M76.96504 88.4606 L70.0394 92.46504 L72.54218 96.79356 L79.46781 92.78912 z"/>
<path fill="#00ffff" stroke="#00ffff" d="M74.96282 84.99778 L79.46781 92.78912 L72.54218 96.79356 L68.03718 89.00222 L67.5 87.00256 L68.03462 85.00222 L69.49778 83.53718 L71.49744 83 L73.49778 83.53462 M70.00056 87.86699 L70.50111 88.73269 L72.50111 88.73141 L73.5 86.99872 L72.99944 86.13301 L72.69526 85.60693 L72.49889 85.26731 L70.49889 85.26859 L69.86562 86.36707 L69.5 87.00128 z"/>
<path fill="#00ffff" stroke="#00ffff" d="M69.50000109310604 87.0012806301713 L69.50000109310604 87.0012806301713 L69.86562075923433 86.36707043769557 L70.49889028852911 85.2685901663359 L70.49889028852911 85.2685901663359 L69.86562075923433 86.36707043769557 z"/>
<path fill="#00ffff" stroke="#00ffff" d="M69.49999952187389 87.00128027645495 L69.49999952187389 87.00128027645495 L70.00055799415958 87.8669911597872 L70.50110962756482 88.73269021534392 L70.50110962756482 88.73269021534392 L70.00055799415958 87.8669911597872 z"/>
<path fill="#00ffff" stroke="#00ffff" d="M72.50110999970829 88.73140954487202 L72.50110999970829 88.73140954487202 L70.50111000087092 88.73269135891208 L70.50111000087092 88.73269135891208 z"/>
<path fill="#00ffff" stroke="#00ffff" d="M73.4977806393646 83.53461760772694 L73.4977806393646 83.53461760772694 L71.49743955323635 83.00000167162929 L71.49743955323635 83.00000167162929 z"/>
<path fill="#00ffff" stroke="#00ffff" d="M72.49889037243518 85.26730978465605 L72.49889037243518 85.26730978465605 L72.69526039165173 85.60692977354496 L72.99944200584042 86.13300884021278 L73.50000047812611 86.99871972354502 L73.50000047812611 86.99871972354502 L72.99944200584042 86.13300884021278 L72.69526039165173 85.60692977354496 z"/>
<path fill="#00ffff" stroke="#00ffff" d="M68.03718078787782 89.002219544445 L68.03718078787782 89.002219544445 L72.54217534959923 96.79356268888556 L72.54217534959923 96.79356268888556 z"/>
<path fill="#00ffff" stroke="#00ffff" d="M79.46781227221943 92.78912392978084 L79.46781227221943 92.78912392978084 L72.54218001111111 96.79356001921656 L72.54218001111111 96.79356001921656 z"/>
<path fill="#00ffff" stroke="#00ffff" d="M67.49999985732673 87.0025600383272 L67.49999985732673 87.0025600383272 L68.03718091002156 89.00221975553522 L68.03718091002156 89.00221975553522 z"/>
<path fill="#00ffff" stroke="#00ffff" d="M68.03461760772696 85.00221936063538 L68.03461760772696 85.00221936063538 L67.5000016716293 87.00256044676364 L67.5000016716293 87.00256044676364 z"/>
<path fill="#00ffff" stroke="#00ffff" d="M69.49778057729266 83.53718057655314 L69.49778057729266 83.53718057655314 L68.03461892820567 85.00221892957862 L68.03461892820567 85.00221892957862 z"/>
<path fill="#00ffff" stroke="#00ffff" d="M72.49888999912906 85.26730864108796 L72.49888999912906 85.26730864108796 L70.4988900002917 85.26859045512802 L70.4988900002917 85.26859045512802 z"/>
<path fill="#00ffff" stroke="#00ffff" d="M69.49778024446476 83.53718091002158 L69.49778024446476 83.53718091002158 L71.49743996167278 82.99999985732674 L71.49743996167278 82.99999985732674 z"/>
<path fill="#00ffff" stroke="#00ffff" d="M74.96281942344687 84.99778057729263 L74.96281942344687 84.99778057729263 L73.4977810704214 83.53461892820565 L73.4977810704214 83.53461892820565 z"/>
<path fill="#00ffff" stroke="#00ffff" d="M74.96281921212218 84.99778045555499 L74.96281921212218 84.99778045555499 L79.46781126829111 92.78911926666756 L79.46781126829111 92.78911926666756 z"/>
<path fill="#00ffff" stroke="#00ffff" d="M73.49999890689402 86.99871936982873 L73.49999890689402 86.99871936982873 L72.50110971147095 88.73140983366413 L72.50110971147095 88.73140983366413 z"/>
<path fill="#00ffff" stroke="#00ffff" d="M79.46781 92.78912 L74.96282 84.99778 L73.49778 83.53462 L71.49744 83 L69.49778 83.53718 L68.03462 85.00222 L67.5 87.00256 L68.03718 89.00222 L72.54218 96.79356 M73.5 86.99872 L72.50111 88.73141 L70.50111 88.73269 L70.00056 87.86699 L69.5 87.00128 L69.86562 86.36707 L70.49889 85.26859 L72.49889 85.26731 L72.69526 85.60693 L72.99944 86.13301 z"/>
<path fill="#00ffff" stroke="#00ffff" d="M84.16149 88.92009 L84.69867 90.91974 L84.16405 92.92009 L82.70089 94.38513 L72.31243 100.39179 L70.31277 100.92897 L68.31243 100.39435 L66.84739 98.93119 L66.31021 96.93153 L66.84483 94.93119 L68.30799 93.46615 L78.69645 87.45949 L80.6961 86.92231 L82.69645 87.45693 z"/>
<path fill="#00ffff" stroke="#00ffff" d="M80.69610045901868 86.9223082825167 L80.69610045901868 86.9223082825167 L82.69645087847492 87.45692671306186 L82.69645087847492 87.45692671306186 z"/>
<path fill="#00ffff" stroke="#00ffff" d="M84.16148922485617 88.92009077613805 L84.16148922485617 88.92009077613805 L82.69645087183068 87.45692912705105 L82.69645087183068 87.45692912705105 z"/>
<path fill="#00ffff" stroke="#00ffff" d="M78.69644975541773 87.45948908954105 L78.69644975541773 87.45948908954105 L80.69610014570684 86.92231054239457 L80.69610014570684 86.92231054239457 z"/>
<path fill="#00ffff" stroke="#00ffff" d="M68.30798972777814 93.466149529195 L68.30798972777814 93.466149529195 L78.6964493611119 87.45948889504943 L78.6964493611119 87.45948889504943 z"/>
<path fill="#00ffff" stroke="#00ffff" d="M66.84482827394055 94.93118827615162 L66.84482827394055 94.93118827615162 L68.30798992302753 93.46614992312614 L68.30798992302753 93.46614992312614 z"/>
<path fill="#00ffff" stroke="#00ffff" d="M66.31021194457797 96.93153051971254 L66.31021194457797 96.93153051971254 L66.84482788067561 94.9311894335843 L66.84482788067561 94.9311894335843 z"/>
<path fill="#00ffff" stroke="#00ffff" d="M66.84739227563712 98.9311893886814 L66.84739227563712 98.9311893886814 L66.31021122294229 96.93152967147337 L66.31021122294229 96.93152967147337 z"/>
<path fill="#00ffff" stroke="#00ffff" d="M68.31243046064728 100.39434953876187 L68.31243046064728 100.39434953876187 L66.8473921076218 98.93118788967489 L66.8473921076218 98.93118788967489 z"/>
<path fill="#00ffff" stroke="#00ffff" d="M70.31277105061851 100.92896606896232 L70.31277105061851 100.92896606896232 L68.31242996449026 100.39435013286469 L68.31242996449026 100.39435013286469 z"/>
<path fill="#00ffff" stroke="#00ffff" d="M72.31242926672324 100.3917872703728 L72.31242926672324 100.3917872703728 L70.31276954951521 100.92896832306765 L70.31276954951521 100.92896832306765 z"/>
<path fill="#00ffff" stroke="#00ffff" d="M82.70088845000193 94.3851273192938 L82.70088845000193 94.3851273192938 L72.31242881666815 100.39178795343935 L72.31242881666815 100.39178795343935 z"/>
<path fill="#00ffff" stroke="#00ffff" d="M84.16404941688897 92.92008941763592 L84.16404941688897 92.92008941763592 L82.70088776780197 94.38512777066141 L82.70088776780197 94.38512777066141 z"/>
<path fill="#00ffff" stroke="#00ffff" d="M84.69866873021184 90.91973966063338 L84.69866873021184 90.91973966063338 L84.16405029966667 92.92009008008962 L84.16405029966667 92.92009008008962 z"/>
<path fill="#00ffff" stroke="#00ffff" d="M84.69866627267585 90.91974100129431 L84.69866627267585 90.91974100129431 L84.16148772552938 88.92009061100521 L84.16148772552938 88.92009061100521 z"/>
<path fill="#00ffff" stroke="#00ffff" d="M84.69867 90.91974 L84.16149 88.92009 L82.69645 87.45693 L80.6961 86.92231 L78.69645 87.45949 L68.30799 93.46615 L66.84483 94.93119 L66.31021 96.93153 L66.84739 98.93119 L68.31243 100.39435 L70.31277 100.92897 L72.31243 100.39179 L82.70089 94.38513 L84.16405 92.92009 z"/>
<path fill="#00ffff" stroke="#00ffff" d="M33.03496 88.4606 L39.9606 92.46504 L37.45782 96.79356 L30.53219 92.78912 z"/>
<path fill="#00ffff" stroke="#00ffff" d="M30.532187727780567 92.78912392978083 L30.532187727780567 92.78912392978083 L37.45781998888889 96.79356001921653 L37.45781998888889 96.79356001921653 z"/>
<path fill="#00ffff" stroke="#00ffff" d="M33.03496057649599 88.46060033333293 L33.03496057649599 88.46060033333293 L30.532188731708914 92.78911926666758 L30.532188731708914 92.78911926666758 z"/>
<path fill="#00ffff" stroke="#00ffff" d="M39.96059900074036 92.46503942222294 L39.96059900074036 92.46503942222294 L37.4578246504008 96.79356268888559 L37.4578246504008 96.79356268888559 z"/>
<path fill="#00ffff" stroke="#00ffff" d="M39.96060033333291 92.46503942350404 L39.96060033333291 92.46503942350404 L33.034960577777056 88.46059900074033 L33.034960577777056 88.46059900074033 z"/>
<path fill="#00ffff" stroke="#00ffff" d="M39.9606 92.46504 L33.03496 88.4606 L30.53219 92.78912 L37.45782 96.79356 z"/>
<path fill="#00ffff" stroke="#00ffff" d="M41.96282 89.00222 L37.45782 96.79356 L30.53219 92.78912 L35.03718 84.99778 L36.50222 83.53462 L38.50256 83 L40.50222 83.53718 L41.96538 85.00222 L42.5 87.00256 M39.49889 88.73269 L39.99944 87.86699 L40.30363 87.3409 L40.5 87.00128 L39.50111 85.26859 L38.23316 85.26778 L37.50111 85.26731 L37.00056 86.13301 L36.5 86.99872 L37.49889 88.73141 z"/>
<path fill="#00ffff" stroke="#00ffff" d="M37.50111000087093 85.26730864108796 L37.50111000087093 85.26730864108796 L38.23316000139905 85.2677778170726 L39.5011099997083 85.26859045512802 L39.5011099997083 85.26859045512802 L38.23316000139905 85.2677778170726 z"/>
<path fill="#00ffff" stroke="#00ffff" d="M37.501109627564844 85.26730978465608 L37.501109627564844 85.26730978465608 L37.000557994159614 86.1330088402128 L36.49999952187392 86.99871972354505 L36.49999952187392 86.99871972354505 L37.000557994159614 86.1330088402128 z"/>
<path fill="#00ffff" stroke="#00ffff" d="M37.49889028852909 88.7314098336641 L37.49889028852909 88.7314098336641 L36.500001093106015 86.9987193698287 L36.500001093106015 86.9987193698287 z"/>
<path fill="#00ffff" stroke="#00ffff" d="M42.49999832837074 87.00256044676362 L42.49999832837074 87.00256044676362 L41.96538239227309 85.00221936063537 L41.96538239227309 85.00221936063537 z"/>
<path fill="#00ffff" stroke="#00ffff" d="M40.50000047812615 87.00128027645498 L40.50000047812615 87.00128027645498 L40.30363045890961 87.34090026534389 L39.99944200584044 87.86699115978723 L39.49889037243521 88.73269021534395 L39.49889037243521 88.73269021534395 L39.99944200584044 87.86699115978723 L40.30363045890961 87.34090026534389 z"/>
<path fill="#00ffff" stroke="#00ffff" d="M35.037180787877844 84.99778045555502 L35.037180787877844 84.99778045555502 L30.532188731708914 92.78911926666758 L30.532188731708914 92.78911926666758 z"/>
<path fill="#00ffff" stroke="#00ffff" d="M37.45781998888889 96.79356001921653 L37.45781998888889 96.79356001921653 L30.532187727780567 92.78912392978083 L30.532187727780567 92.78912392978083 z"/>
<path fill="#00ffff" stroke="#00ffff" d="M36.502218929578625 83.53461892820566 L36.502218929578625 83.53461892820566 L35.03718057655315 84.99778057729266 L35.03718057655315 84.99778057729266 z"/>
<path fill="#00ffff" stroke="#00ffff" d="M38.502560446763646 83.0000016716293 L38.502560446763646 83.0000016716293 L36.50221936063539 83.53461760772694 L36.50221936063539 83.53461760772694 z"/>
<path fill="#00ffff" stroke="#00ffff" d="M40.502219755535236 83.53718091002156 L40.502219755535236 83.53718091002156 L38.50256003832721 82.99999985732673 L38.50256003832721 82.99999985732673 z"/>
<path fill="#00ffff" stroke="#00ffff" d="M40.499998906894 87.00128063017127 L40.499998906894 87.00128063017127 L39.50110971147092 85.26859016633587 L39.50110971147092 85.26859016633587 z"/>
<path fill="#00ffff" stroke="#00ffff" d="M40.50221942270737 83.53718057655313 L40.50221942270737 83.53718057655313 L41.965381071794354 85.0022189295786 L41.965381071794354 85.0022189295786 z"/>
<path fill="#00ffff" stroke="#00ffff" d="M41.96281908997848 89.00221975553524 L41.96281908997848 89.00221975553524 L42.500000142673315 87.00256003832722 L42.500000142673315 87.00256003832722 z"/>
<path fill="#00ffff" stroke="#00ffff" d="M41.96281921212221 89.00221954444501 L41.96281921212221 89.00221954444501 L37.4578246504008 96.79356268888559 L37.4578246504008 96.79356268888559 z"/>
<path fill="#00ffff" stroke="#00ffff" d="M39.49888999912906 88.73269135891208 L39.49888999912906 88.73269135891208 L37.498890000291695 88.73140954487202 L37.498890000291695 88.73140954487202 z"/>
<path fill="#00ffff" stroke="#00ffff" d="M37.45782 96.79356 L41.96282 89.00222 L42.5 87.00256 L41.96538 85.00222 L40.50222 83.53718 L38.50256 83 L36.50222 83.53462 L35.03718 84.99778 L30.53219 92.78912 M39.49889 88.73269 L37.49889 88.73141 L36.5 86.99872 L37.00056 86.13301 L37.50111 85.26731 L38.23316 85.26778 L39.50111 85.26859 L40.5 87.00128 L40.30363 87.3409 L39.99944 87.86699 z"/>
<path fill="#00ffff" stroke="#00ffff" d="M43.15261 98.93119 L41.68757 100.39435 L39.68723 100.92897 L37.68757 100.39179 L27.29911 94.38513 L25.83595 92.92009 L25.30133 90.91974 L25.83851 88.92009 L27.30355 87.45693 L29.3039 86.92231 L31.30355 87.45949 L41.69201 93.46615 L43.15517 94.93119 L43.68979 96.93153 z"/>
<path fill="#00ffff" stroke="#00ffff" d="M43.155172119324426 94.93118943358428 L43.155172119324426 94.93118943358428 L43.68978805542206 96.93153051971252 L43.68978805542206 96.93153051971252 z"/>
<path fill="#00ffff" stroke="#00ffff" d="M43.152607724362916 98.93118938868142 L43.152607724362916 98.93118938868142 L43.68978877705776 96.93152967147338 L43.68978877705776 96.93152967147338 z"/>
<path fill="#00ffff" stroke="#00ffff" d="M41.69201007697249 93.46614992312611 L41.69201007697249 93.46614992312611 L43.15517172605947 94.93118827615159 L43.15517172605947 94.93118827615159 z"/>
<path fill="#00ffff" stroke="#00ffff" d="M31.303550638888098 87.4594888950494 L31.303550638888098 87.4594888950494 L41.69201027222188 93.46614952919496 L41.69201027222188 93.46614952919496 z"/>
<path fill="#00ffff" stroke="#00ffff" d="M29.303899854293164 86.92231054239456 L29.303899854293164 86.92231054239456 L31.303550244582265 87.45948908954104 L31.303550244582265 87.45948908954104 z"/>
<path fill="#00ffff" stroke="#00ffff" d="M27.30354912152507 87.45692671306188 L27.30354912152507 87.45692671306188 L29.303899540981313 86.92230828251671 L29.303899540981313 86.92230828251671 z"/>
<path fill="#00ffff" stroke="#00ffff" d="M25.838510775143856 88.92009077613808 L25.838510775143856 88.92009077613808 L27.303549128169337 87.45692912705108 L27.303549128169337 87.45692912705108 z"/>
<path fill="#00ffff" stroke="#00ffff" d="M25.30133372732419 90.91974100129433 L25.30133372732419 90.91974100129433 L25.838512274470666 88.92009061100522 L25.838512274470666 88.92009061100522 z"/>
<path fill="#00ffff" stroke="#00ffff" d="M25.83594970033338 92.92009008008961 L25.83594970033338 92.92009008008961 L25.30133126978821 90.91973966063337 L25.30133126978821 90.91973966063337 z"/>
<path fill="#00ffff" stroke="#00ffff" d="M27.299112232198045 94.38512777066138 L27.299112232198045 94.38512777066138 L25.835950583111057 92.9200894176359 L25.835950583111057 92.9200894176359 z"/>
<path fill="#00ffff" stroke="#00ffff" d="M37.68757118333187 100.39178795343933 L37.68757118333187 100.39178795343933 L27.299111549998084 94.38512731929377 L27.299111549998084 94.38512731929377 z"/>
<path fill="#00ffff" stroke="#00ffff" d="M39.68723045048479 100.92896832306764 L39.68723045048479 100.92896832306764 L37.687570733276765 100.39178727037279 L37.687570733276765 100.39178727037279 z"/>
<path fill="#00ffff" stroke="#00ffff" d="M41.68757003550974 100.3943501328647 L41.68757003550974 100.3943501328647 L39.687228949381485 100.92896606896234 L39.687228949381485 100.92896606896234 z"/>
<path fill="#00ffff" stroke="#00ffff" d="M41.687569539352744 100.3943495387619 L41.687569539352744 100.3943495387619 L43.15260789237823 98.93118788967492 L43.15260789237823 98.93118788967492 z"/>
<path fill="#00ffff" stroke="#00ffff" d="M41.68757 100.39435 L43.15261 98.93119 L43.68979 96.93153 L43.15517 94.93119 L41.69201 93.46615 L31.30355 87.45949 L29.3039 86.92231 L27.30355 87.45693 L25.83851 88.92009 L25.30133 90.91974 L25.83595 92.92009 L27.29911 94.38513 L37.68757 100.39179 L39.68723 100.92897 z"/>
<path fill="#00ffff" stroke="#00ffff" d="M86.65685 22.99594 L80.99594 17.34315 L84.52893 13.80508 L90.18985 19.45787 z"/>
<path fill="#00ffff" stroke="#00ffff" d="M90.18984984935453 19.457870150861915 L90.18984984935453 19.457870150861915 L84.52893393112937 13.80507606322245 L84.52893393112937 13.80507606322245 z"/>
<path fill="#00ffff" stroke="#00ffff" d="M86.65685094109101 22.995940939740805 L86.65685094109101 22.995940939740805 L90.18984786638154 19.457867869442676 L90.18984786638154 19.457867869442676 z"/>
<path fill="#00ffff" stroke="#00ffff" d="M80.99593814655366 17.343148149212837 L80.99593814655366 17.343148149212837 L84.52893007902293 13.805080078909558 L84.52893007902293 13.805080078909558 z"/>
<path fill="#00ffff" stroke="#00ffff" d="M80.99594093974078 17.343149058909017 L80.99594093974078 17.343149058909017 L86.65685185078719 22.995938146553637 L86.65685185078719 22.995938146553637 z"/>
<path fill="#00ffff" stroke="#00ffff" d="M80.99594 17.34315 L86.65685 22.99594 L90.18985 19.45787 L84.52893 13.80508 z"/>
<path fill="#00ffff" stroke="#00ffff" d="M78.16954 20.1736 L84.52893 13.80508 L90.18985 19.45787 L83.83046 25.8264 L82.03805 26.86296 L79.9675 26.86445 L78.1736 25.83046 L77.13704 24.03805 L77.13555 21.9675 M79.5868 24.41523 L80.81178 24.74252 L81.51902 24.93148 L82.22562 24.22387 L82.93222 23.51625 L82.4132 21.58477 L80.48098 21.06852 L79.77438 21.77613 L79.34498 22.20615 L79.06778 22.48375 z"/>
<path fill="#00ffff" stroke="#00ffff" d="M81.51902042966893 24.93147839183672 L81.51902042966893 24.93147839183672 L80.81178051186187 24.74251808420529 L79.5868005277092 24.41522802489196 L79.5868005277092 24.41522802489196 L80.81178051186187 24.74251808420529 z"/>
<path fill="#00ffff" stroke="#00ffff" d="M81.51902217345707 24.931482170338786 L81.51902217345707 24.931482170338786 L82.22561955851725 24.223869559150653 L82.93222194357226 23.516251940783782 L82.93222194357226 23.516251940783782 L82.22561955851725 24.223869559150653 z"/>
<path fill="#00ffff" stroke="#00ffff" d="M82.41319771190878 21.584770614853024 L82.41319771190878 21.584770614853024 L82.93222228575054 23.51624938577595 L82.93222228575054 23.51624938577595 z"/>
<path fill="#00ffff" stroke="#00ffff" d="M77.13555449324201 21.967499996774414 L77.13555449324201 21.967499996774414 L77.13704088951091 24.038049999361437 L77.13704088951091 24.038049999361437 z"/>
<path fill="#00ffff" stroke="#00ffff" d="M79.06777805642778 22.48374805921627 L79.06777805642778 22.48374805921627 L79.34497891849587 22.206148920047518 L79.77438044148279 21.7761304408494 L80.48097782654297 21.068517829661268 L80.48097782654297 21.068517829661268 L79.77438044148279 21.7761304408494 L79.34497891849587 22.206148920047518 z"/>
<path fill="#00ffff" stroke="#00ffff" d="M83.8304563936819 25.826396398855962 L83.8304563936819 25.826396398855962 L90.18984786638154 19.457867869442676 L90.18984786638154 19.457867869442676 z"/>
<path fill="#00ffff" stroke="#00ffff" d="M84.52893393112937 13.80507606322245 L84.52893393112937 13.80507606322245 L90.18984984935453 19.457870150861915 L90.18984984935453 19.457870150861915 z"/>
<path fill="#00ffff" stroke="#00ffff" d="M82.03804950670012 26.862959146994314 L82.03804950670012 26.862959146994314 L83.83045745135755 25.82639559293112 L83.83045745135755 25.82639559293112 z"/>
<path fill="#00ffff" stroke="#00ffff" d="M79.96749999677441 26.86444550675804 L79.96749999677441 26.86444550675804 L82.03804999936143 26.862959110489133 L82.03804999936143 26.862959110489133 z"/>
<path fill="#00ffff" stroke="#00ffff" d="M78.17360237435483 25.83045588067032 L78.17360237435483 25.83045588067032 L79.96750138021746 26.864447605425006 L79.96750138021746 26.864447605425006 z"/>
<path fill="#00ffff" stroke="#00ffff" d="M79.06777771424947 22.483750614224036 L79.06777771424947 22.483750614224036 L79.58680228809125 24.41522938514696 L79.58680228809125 24.41522938514696 z"/>
<path fill="#00ffff" stroke="#00ffff" d="M78.17360440706891 25.830457451357518 L78.17360440706891 25.830457451357518 L77.13704085300571 24.0380495067001 L77.13704085300571 24.0380495067001 z"/>
<path fill="#00ffff" stroke="#00ffff" d="M78.16954411932971 20.173602374354868 L78.16954411932971 20.173602374354868 L77.13555239457503 21.967501380217485 L77.13555239457503 21.967501380217485 z"/>
<path fill="#00ffff" stroke="#00ffff" d="M78.16954360631814 20.17360360114409 L78.16954360631814 20.17360360114409 L84.52893007902293 13.805080078909558 L84.52893007902293 13.805080078909558 z"/>
<path fill="#00ffff" stroke="#00ffff" d="M80.48097957033104 21.068521608163316 L80.48097957033104 21.068521608163316 L82.41319947229077 21.584771975108076 L82.41319947229077 21.584771975108076 z"/>
<path fill="#00ffff" stroke="#00ffff" d="M84.52893 13.80508 L78.16954 20.1736 L77.13555 21.9675 L77.13704 24.03805 L78.1736 25.83046 L79.9675 26.86445 L82.03805 26.86296 L83.83046 25.8264 L90.18985 19.45787 M80.48098 21.06852 L82.4132 21.58477 L82.93222 23.51625 L82.22562 24.22387 L81.51902 24.93148 L80.81178 24.74252 L79.5868 24.41523 L79.06778 22.48375 L79.34498 22.20615 L79.77438 21.77613 z"/>
<path fill="#00ffff" stroke="#00ffff" d="M79.57665 10.2731 L81.36906 9.23653 L83.43961 9.23505 L85.2335 10.26904 L93.72487 18.74822 L94.76144 20.54063 L94.76292 22.61118 L93.72893 24.40508 L91.93653 25.44164 L89.86597 25.44313 L88.07208 24.40914 L79.58071 15.92995 L78.54415 14.13754 L78.54266 12.06699 z"/>
<path fill="#00ffff" stroke="#00ffff" d="M78.54414748678474 14.137540001804174 L78.54414748678474 14.137540001804174 L78.54266109051584 12.066989999217146 L78.54266109051584 12.066989999217146 z"/>
<path fill="#00ffff" stroke="#00ffff" d="M79.57664827214016 10.27309900407282 L79.57664827214016 10.27309900407282 L78.54266087391866 12.066990503721037 L78.54266087391866 12.066990503721037 z"/>
<path fill="#00ffff" stroke="#00ffff" d="M79.5807108244915 15.929949523190102 L79.5807108244915 15.929949523190102 L78.54414727042831 14.137541578532687 L78.54414727042831 14.137541578532687 z"/>
<path fill="#00ffff" stroke="#00ffff" d="M88.07208208034218 24.40913791666881 L88.07208208034218 24.40913791666881 L79.58071071018577 15.929949288793834 L79.58071071018577 15.929949288793834 z"/>
<path fill="#00ffff" stroke="#00ffff" d="M89.8659730772613 25.443124661179723 L89.8659730772613 25.443124661179723 L88.07208157761308 24.40913726295822 L88.07208157761308 24.40913726295822 z"/>
<path fill="#00ffff" stroke="#00ffff" d="M91.93652999950574 25.441639311494054 L91.93652999950574 25.441639311494054 L89.86596999692387 25.443125714941708 L89.86596999692387 25.443125714941708 z"/>
<path fill="#00ffff" stroke="#00ffff" d="M93.72892933314336 24.405078846882915 L93.72892933314336 24.405078846882915 L91.93652888226639 25.441638067234177 L91.93652888226639 25.441638067234177 z"/>
<path fill="#00ffff" stroke="#00ffff" d="M94.76292306574159 22.611181767073525 L94.76292306574159 22.611181767073525 L93.7289313409869 24.405080772936138 L93.7289313409869 24.405080772936138 z"/>
<path fill="#00ffff" stroke="#00ffff" d="M94.76143626770524 20.54063000267932 L94.76143626770524 20.54063000267932 L94.762922663969 22.611179998087604 L94.762922663969 22.611179998087604 z"/>
<path fill="#00ffff" stroke="#00ffff" d="M93.72487086850569 18.74821949773635 L93.72487086850569 18.74821949773635 L94.76143692878843 20.5406317761057 L94.76143692878843 20.5406317761057 z"/>
<path fill="#00ffff" stroke="#00ffff" d="M85.23350350071375 10.26903649425649 L85.23350350071375 10.26903649425649 L93.72486987087531 18.74822012931021 L93.72486987087531 18.74822012931021 z"/>
<path fill="#00ffff" stroke="#00ffff" d="M83.43961106595685 9.235048150643859 L83.43961106595685 9.235048150643859 L85.23350256560506 10.269035548865359 L85.23350256560506 10.269035548865359 z"/>
<path fill="#00ffff" stroke="#00ffff" d="M81.3690600023495 9.23653327285499 L81.3690600023495 9.23653327285499 L83.43960999775777 9.235046876591237 L83.43960999775777 9.235046876591237 z"/>
<path fill="#00ffff" stroke="#00ffff" d="M81.36906067486208 9.236531166959972 L81.36906067486208 9.236531166959972 L79.57664839649274 10.273097227242719 L79.57664839649274 10.273097227242719 z"/>
<path fill="#00ffff" stroke="#00ffff" d="M81.36906 9.23653 L79.57665 10.2731 L78.54266 12.06699 L78.54415 14.13754 L79.58071 15.92995 L88.07208 24.40914 L89.86597 25.44313 L91.93653 25.44164 L93.72893 24.40508 L94.76292 22.61118 L94.76144 20.54063 L93.72487 18.74822 L85.2335 10.26904 L83.43961 9.23505 z"/>
<path fill="#00ffff" stroke="#00ffff" d="M29.00406 17.34315 L23.34315 22.99594 L19.81015 19.45787 L25.47107 13.80508 z"/>
<path fill="#00ffff" stroke="#00ffff" d="M25.47106606887065 13.805076063222476 L25.47106606887065 13.805076063222476 L19.810150150645494 19.45787015086194 L19.810150150645494 19.45787015086194 z"/>
<path fill="#00ffff" stroke="#00ffff" d="M29.004061853446363 17.34314814921281 L29.004061853446363 17.34314814921281 L25.47106992097709 13.805080078909532 L25.47106992097709 13.805080078909532 z"/>
<path fill="#00ffff" stroke="#00ffff" d="M23.343149058909017 22.99594093974078 L23.343149058909017 22.99594093974078 L19.810152133618487 19.45786786944265 L19.810152133618487 19.45786786944265 z"/>
<path fill="#00ffff" stroke="#00ffff" d="M23.343148149212837 22.995938146553662 L23.343148149212837 22.995938146553662 L29.004059060259245 17.343149058909045 L29.004059060259245 17.343149058909045 z"/>
<path fill="#00ffff" stroke="#00ffff" d="M23.34315 22.99594 L29.00406 17.34315 L25.47107 13.80508 L19.81015 19.45787 z"/>
<path fill="#00ffff" stroke="#00ffff" d="M26.16954 25.8264 L19.81015 19.45787 L25.47107 13.80508 L31.83046 20.1736 L32.86445 21.9675 L32.86296 24.03805 L31.8264 25.83046 L30.0325 26.86445 L27.96195 26.86296 M27.06778 23.51625 L27.77438 24.22387 L28.20377 24.65388 L28.48098 24.93148 L30.4132 24.41523 L30.74225 23.19072 L30.93222 22.48375 L30.22562 21.77613 L29.51902 21.06852 L27.5868 21.58477 z"/>
<path fill="#00ffff" stroke="#00ffff" d="M30.932222285750566 22.48375061422405 L30.932222285750566 22.48375061422405 L30.742246597127295 23.190719085584277 L30.413197711908794 24.415229385146976 L30.413197711908794 24.415229385146976 L30.742246597127295 23.190719085584277 z"/>
<path fill="#00ffff" stroke="#00ffff" d="M30.932221943572237 22.483748059216243 L30.932221943572237 22.483748059216243 L30.225619558517224 21.776130440849368 L29.519022173457056 21.068517829661243 L29.519022173457056 21.068517829661243 L30.225619558517224 21.776130440849368 z"/>
<path fill="#00ffff" stroke="#00ffff" d="M27.58680052770923 21.58477197510809 L27.58680052770923 21.58477197510809 L29.519020429668956 21.06852160816333 L29.519020429668956 21.06852160816333 z"/>
<path fill="#00ffff" stroke="#00ffff" d="M27.96195000063856 26.862959110489136 L27.96195000063856 26.862959110489136 L30.032500003225582 26.86444550675804 L30.032500003225582 26.86444550675804 z"/>
<path fill="#00ffff" stroke="#00ffff" d="M28.48097782654294 24.931482170338754 L28.48097782654294 24.931482170338754 L28.20377197165361 24.653878031175157 L27.774380441482773 24.22386955915063 L27.06777805642776 23.516251940783754 L27.06777805642776 23.516251940783754 L27.774380441482773 24.22386955915063 L28.20377197165361 24.653878031175157 z"/>
<path fill="#00ffff" stroke="#00ffff" d="M31.830456393681875 20.173603601144062 L31.830456393681875 20.173603601144062 L25.47106992097709 13.805080078909532 L25.47106992097709 13.805080078909532 z"/>
<path fill="#00ffff" stroke="#00ffff" d="M19.810150150645494 19.45787015086194 L19.810150150645494 19.45787015086194 L25.47106606887065 13.805076063222476 L25.47106606887065 13.805076063222476 z"/>
<path fill="#00ffff" stroke="#00ffff" d="M32.864447605425006 21.967501380217456 L32.864447605425006 21.967501380217456 L31.830455880670325 20.173602374354843 L31.830455880670325 20.173602374354843 z"/>
<path fill="#00ffff" stroke="#00ffff" d="M32.862959110489136 24.038049999361437 L32.862959110489136 24.038049999361437 L32.86444550675804 21.967499996774414 L32.86444550675804 21.967499996774414 z"/>
<path fill="#00ffff" stroke="#00ffff" d="M31.82639559293112 25.830457451357546 L31.82639559293112 25.830457451357546 L32.862959146994314 24.038049506700126 L32.862959146994314 24.038049506700126 z"/>
<path fill="#00ffff" stroke="#00ffff" d="M28.48097957033106 24.931478391836734 L28.48097957033106 24.931478391836734 L30.413199472290785 24.415228024891974 L30.413199472290785 24.415228024891974 z"/>
<path fill="#00ffff" stroke="#00ffff" d="M31.826397625645168 25.83045588067035 L31.826397625645168 25.83045588067035 L30.03249861978255 26.86444760542503 L30.03249861978255 26.86444760542503 z"/>
<path fill="#00ffff" stroke="#00ffff" d="M26.169542548642465 25.826395592931096 L26.169542548642465 25.826395592931096 L27.961950493299884 26.86295914699429 L27.961950493299884 26.86295914699429 z"/>
<path fill="#00ffff" stroke="#00ffff" d="M26.169543606318122 25.826396398855934 L26.169543606318122 25.826396398855934 L19.810152133618487 19.45786786944265 L19.810152133618487 19.45786786944265 z"/>
<path fill="#00ffff" stroke="#00ffff" d="M27.067777714249498 23.516249385775964 L27.067777714249498 23.516249385775964 L27.58680228809127 21.58477061485304 L27.58680228809127 21.58477061485304 z"/>
<path fill="#00ffff" stroke="#00ffff" d="M19.81015 19.45787 L26.16954 25.8264 L27.96195 26.86296 L30.0325 26.86445 L31.8264 25.83046 L32.86296 24.03805 L32.86445 21.9675 L31.83046 20.1736 L25.47107 13.80508 M27.06778 23.51625 L27.5868 21.58477 L29.51902 21.06852 L30.22562 21.77613 L30.93222 22.48375 L30.74225 23.19072 L30.4132 24.41523 L28.48098 24.93148 L28.20377 24.65388 L27.77438 24.22387 z"/>
<path fill="#00ffff" stroke="#00ffff" d="M16.27107 24.40508 L15.23708 22.61118 L15.23856 20.54063 L16.27513 18.74822 L24.7665 10.26904 L26.56039 9.23505 L28.63094 9.23653 L30.42335 10.2731 L31.45734 12.06699 L31.45585 14.13754 L30.41929 15.92995 L21.92792 24.40914 L20.13403 25.44313 L18.06347 25.44164 z"/>
<path fill="#00ffff" stroke="#00ffff" d="M20.134030003076134 25.44312571494171 L20.134030003076134 25.44312571494171 L18.06347000049426 25.441639311494054 L18.06347000049426 25.441639311494054 z"/>
<path fill="#00ffff" stroke="#00ffff" d="M16.271070666856655 24.405078846882894 L16.271070666856655 24.405078846882894 L18.063471117733624 25.441638067234155 L18.063471117733624 25.441638067234155 z"/>
<path fill="#00ffff" stroke="#00ffff" d="M21.927918422386927 24.409137262958247 L21.927918422386927 24.409137262958247 L20.134026922738713 25.443124661179745 L20.134026922738713 25.443124661179745 z"/>
<path fill="#00ffff" stroke="#00ffff" d="M30.419289289814245 15.929949288793864 L30.419289289814245 15.929949288793864 L21.927917919657837 24.40913791666884 L21.927917919657837 24.40913791666884 z"/>
<path fill="#00ffff" stroke="#00ffff" d="M31.455852729571728 14.137541578532709 L31.455852729571728 14.137541578532709 L30.419289175508535 15.929949523190128 L30.419289175508535 15.929949523190128 z"/>
<path fill="#00ffff" stroke="#00ffff" d="M31.45733890948421 12.066989999217146 L31.45733890948421 12.066989999217146 L31.455852513215305 14.137540001804174 L31.455852513215305 14.137540001804174 z"/>
<path fill="#00ffff" stroke="#00ffff" d="M30.423351727859878 10.273099004072796 L30.423351727859878 10.273099004072796 L31.457339126081376 12.06699050372101 L31.457339126081376 12.06699050372101 z"/>
<path fill="#00ffff" stroke="#00ffff" d="M28.630939325137916 9.23653116695995 L28.630939325137916 9.23653116695995 L30.423351603507264 10.273097227242694 L30.423351603507264 10.273097227242694 z"/>
<path fill="#00ffff" stroke="#00ffff" d="M26.56039000224222 9.235046876591236 L26.56039000224222 9.235046876591236 L28.630939997650497 9.23653327285499 L28.630939997650497 9.23653327285499 z"/>
<path fill="#00ffff" stroke="#00ffff" d="M24.766497434394942 10.26903554886538 L24.766497434394942 10.26903554886538 L26.560388934043157 9.235048150643882 L26.560388934043157 9.235048150643882 z"/>
<path fill="#00ffff" stroke="#00ffff" d="M16.275130129124715 18.748220129310237 L16.275130129124715 18.748220129310237 L24.766496499286276 10.269036494256515 L24.766496499286276 10.269036494256515 z"/>
<path fill="#00ffff" stroke="#00ffff" d="M15.238563071211601 20.540631776105723 L15.238563071211601 20.540631776105723 L16.27512913149435 18.748219497736375 L16.27512913149435 18.748219497736375 z"/>
<path fill="#00ffff" stroke="#00ffff" d="M15.237077336031058 22.611179998087604 L15.237077336031058 22.611179998087604 L15.23856373229481 20.54063000267932 L15.23856373229481 20.54063000267932 z"/>
<path fill="#00ffff" stroke="#00ffff" d="M15.237076934258447 22.6111817670735 L15.237076934258447 22.6111817670735 L16.271068659013125 24.405080772936117 L16.271068659013125 24.405080772936117 z"/>
<path fill="#00ffff" stroke="#00ffff" d="M15.23708 22.61118 L16.27107 24.40508 L18.06347 25.44164 L20.13403 25.44313 L21.92792 24.40914 L30.41929 15.92995 L31.45585 14.13754 L31.45734 12.06699 L30.42335 10.2731 L28.63094 9.23653 L26.56039 9.23505 L24.7665 10.26904 L16.27513 18.74822 L15.23856 20.54063 z"/>
</svg>